<svg width="50" height="50" viewBox="0 0 50 50" fill="none" xmlns="http://www.w3.org/2000/svg">
<path d="M46.1545 16.6688C46.1457 14.7131 44.6905 13.1401 42.7185 12.8868C42.6429 12.8781 42.5663 12.8695 42.4272 12.8531C43.5945 11.4976 44.0401 9.98871 43.7018 8.28635C43.4576 7.05361 42.8105 6.05242 41.8206 5.27733C39.7709 3.6739 36.924 3.82283 35.0089 5.63281C33.2394 7.30472 32.6832 10.3627 34.7373 12.789C34.2238 12.9553 33.6741 13.0651 33.1924 13.3097C32.7182 13.551 32.3131 13.9283 31.8686 14.2533C30.4999 13.1369 30.3115 13.0423 29.0052 12.8412C30.2064 11.4204 30.651 9.82456 30.1976 8.02871C29.8976 6.83837 29.2231 5.88718 28.2311 5.16536C26.2164 3.6989 23.5118 3.8587 21.6449 5.56867C20.6047 6.52094 20.0518 7.71346 19.9948 9.12557C19.9379 10.5312 20.4197 11.7476 21.3712 12.8521C20.1777 12.9586 19.2295 13.4282 18.4652 14.3294C17.7009 13.4565 16.7603 12.9423 15.5373 12.8618C16.7121 11.4954 17.1567 9.98545 16.8184 8.28309C16.5731 7.05144 15.926 6.04915 14.935 5.27516C12.8853 3.6739 10.0373 3.82392 8.1233 5.63389C6.35822 7.30472 5.79761 10.3627 7.89883 12.8423C7.75101 12.8651 7.62728 12.8836 7.50245 12.9042C5.84031 13.188 4.65009 14.3142 4.27342 15.9567C4.25919 16.0187 4.22306 16.0763 4.19678 16.135V27.9341C4.56468 28.9255 5.29283 29.319 6.33414 29.2419C6.80935 29.2071 7.29003 29.2462 7.76743 29.2321C7.98752 29.2245 8.10797 29.2799 8.18899 29.5028C8.3609 29.9724 8.55799 30.4344 8.76932 30.8888C8.85911 31.0834 8.82516 31.1986 8.67625 31.341C8.2317 31.7628 7.79919 32.1965 7.36997 32.6335C6.63634 33.3782 6.62758 34.3522 7.36887 35.0925C9.35293 37.0742 11.3425 39.0494 13.3386 41.0181C14.0514 41.7215 15.0325 41.7225 15.7584 41.0366C16.2139 40.6061 16.6563 40.1637 17.091 39.7125C17.2487 39.5484 17.3757 39.5277 17.5859 39.6267C18.0283 39.8365 18.4969 39.9908 18.9371 40.2039C19.0586 40.2626 19.1922 40.4409 19.1977 40.5702C19.2251 41.1649 19.2054 41.7628 19.2108 42.3596C19.2229 43.4521 19.9094 44.138 21.0077 44.1402C23.7932 44.1445 26.5799 44.1456 29.3666 44.1402C30.4385 44.138 31.1295 43.4488 31.1459 42.3824C31.1546 41.7867 31.1568 41.1899 31.1426 40.5931C31.1382 40.3681 31.2094 40.2604 31.4306 40.1833C31.8795 40.0245 32.3241 39.8463 32.7511 39.6375C32.9964 39.5169 33.1365 39.5701 33.3095 39.7517C33.7125 40.1756 34.1329 40.5833 34.5523 40.9909C35.3056 41.7236 36.2856 41.7421 37.0324 41.0062C39.0296 39.0386 41.0191 37.0634 43.001 35.0805C43.739 34.3424 43.7171 33.3706 42.9769 32.6205C42.5564 32.1943 42.1382 31.765 41.698 31.3595C41.5129 31.1877 41.514 31.0508 41.6148 30.8377C41.8162 30.4094 42.0013 29.9713 42.1579 29.5245C42.2422 29.2853 42.3703 29.2256 42.6068 29.231C43.2211 29.2462 43.8364 29.2429 44.4507 29.2343C45.4373 29.2212 46.1567 28.5146 46.1577 27.5308C46.1643 23.9109 46.1731 20.2898 46.1545 16.6688ZM38.5916 5.80239C40.5647 5.79043 42.1623 7.36234 42.1677 9.32342C42.1732 11.2769 40.568 12.876 38.6091 12.8673C36.6623 12.8597 35.0779 11.2791 35.0735 9.34081C35.068 7.40039 36.6437 5.81435 38.5916 5.80239ZM25.1959 5.80239C27.146 5.81 28.7238 7.38517 28.726 9.32885C28.7293 11.2823 27.1197 12.8792 25.1619 12.8673C23.214 12.8553 21.6329 11.2736 21.6318 9.33538C21.6296 7.37756 23.225 5.79478 25.1959 5.80239ZM21.3252 24.1228C21.8256 24.1228 22.1366 23.9119 22.2329 23.5293C22.3731 22.9803 22.0074 22.5183 21.3909 22.502C20.7087 22.4846 20.0266 22.4987 19.2776 22.4987V22.0954C19.2776 20.3474 19.2754 18.5983 19.2787 16.8492C19.2809 15.4317 20.2083 14.5022 21.6296 14.499C23.9914 14.4946 26.3543 14.4946 28.7162 14.499C30.144 14.5011 31.0758 15.4241 31.0791 16.8373C31.0835 18.5994 31.0802 20.3616 31.0802 22.1237V22.4977C30.4561 22.4977 29.8615 22.4955 29.2658 22.4987C29.1027 22.4987 28.9363 22.4944 28.7775 22.5248C28.3472 22.6085 28.0909 22.9444 28.115 23.3706C28.1369 23.7858 28.4424 24.0967 28.8826 24.1163C29.2779 24.1348 29.6743 24.1239 30.0706 24.1239C31.9408 24.125 33.811 24.125 35.6823 24.125H36.1247C35.9922 28.6016 32.0755 34.063 25.4784 34.2478C19.0006 34.4305 14.4839 29.269 14.2156 24.125H15.1814C17.229 24.125 19.2776 24.1261 21.3252 24.1228ZM11.7728 5.80239C13.7196 5.81761 15.2931 7.40582 15.2843 9.34733C15.2767 11.2867 13.6879 12.864 11.7421 12.8673C9.78216 12.8705 8.18133 11.2704 8.19009 9.3169C8.19885 7.35799 9.79968 5.78717 11.7728 5.80239ZM5.83702 22.0748C5.83593 20.3398 5.83374 18.6038 5.83702 16.8688C5.83812 15.423 6.76117 14.5011 8.21089 14.499C10.5607 14.4957 12.9094 14.4957 15.258 14.499C16.7111 14.5011 17.6352 15.4208 17.6374 16.8634C17.6407 18.7201 17.6385 20.5757 17.6385 22.4803H5.85454C5.84797 22.3379 5.83702 22.2063 5.83702 22.0748ZM44.4934 27.6091C43.8485 27.6091 43.1981 27.6058 42.5488 27.6091C41.2633 27.6167 41.1188 27.4221 40.6337 28.931C40.4399 29.5332 40.141 30.105 39.8694 30.6801C39.5628 31.3301 39.5869 31.5508 40.0906 32.0498C40.6884 32.6433 41.2885 33.2336 41.8644 33.8021C39.8179 35.8306 37.7912 37.8384 35.737 39.8745C35.1808 39.319 34.5862 38.7244 33.9895 38.1309C33.4792 37.6243 33.2559 37.6069 32.6131 37.8917C31.805 38.2504 30.9827 38.5776 30.1604 38.9016C29.683 39.0907 29.5133 39.2973 29.51 39.8104C29.5056 40.6898 29.5089 41.5682 29.5089 42.4813H20.85V40.4159C20.85 40.1854 20.8489 39.955 20.8478 39.7245C20.8467 39.3223 20.6376 39.0712 20.2719 38.9222C19.3641 38.5526 18.4564 38.1852 17.5564 37.8004C17.1337 37.6199 16.7921 37.7047 16.48 38.02C15.8592 38.6494 15.234 39.2734 14.6514 39.8593C12.6071 37.8286 10.5859 35.8208 8.51639 33.7652C9.08576 33.2075 9.71098 32.6009 10.3296 31.9878C10.7468 31.5747 10.7698 31.3149 10.5377 30.7855C10.1796 29.9669 9.838 29.1418 9.50842 28.3113C9.29928 27.7841 9.08029 27.6112 8.49996 27.6091C7.62838 27.6069 6.75679 27.6091 5.86111 27.6091V24.1522H12.5152C12.8787 30.4311 18.2254 35.8426 25.0995 35.885C28.437 35.9056 31.3605 34.7631 33.8033 32.502C36.2331 30.2528 37.5426 27.4471 37.8218 24.1478H44.4934V27.6091ZM44.5219 22.1367V22.4748H32.7193V20.4224C32.7193 19.2158 32.716 18.0091 32.7204 16.8025C32.7259 15.4382 33.6632 14.5033 35.0385 14.5001C37.4287 14.4935 39.819 14.4935 42.2093 14.5001C43.5791 14.5033 44.5164 15.4426 44.5208 16.8079C44.5263 18.5842 44.5219 20.3605 44.5219 22.1367Z" fill="#6F768E"/>
<path d="M25.9952 23.2923C26.0061 23.7315 25.6612 24.0968 25.2188 24.1163C24.7546 24.1359 24.3735 23.7859 24.3626 23.3315C24.3505 22.8879 24.7338 22.4977 25.1794 22.4977C25.6119 22.4988 25.9842 22.8618 25.9952 23.2923Z" fill="#6F768E"/>
</svg>
