<svg width="50" height="50" viewBox="0 0 50 50" fill="none" xmlns="http://www.w3.org/2000/svg">
<path d="M43.9587 13.1313C43.9587 12.9422 43.9489 12.7519 43.9315 12.5627C43.7739 10.9112 42.4659 9.67285 40.8024 9.59674C40.6198 9.58913 40.4371 9.58043 40.2088 9.56956C40.2882 9.39451 40.3447 9.27492 40.3958 9.15423C40.7394 8.33554 40.8035 7.49402 40.5198 6.6525C40.0555 5.26845 39.0813 4.43019 37.644 4.21382C36.273 4.00725 35.1108 4.4802 34.2942 5.6044C33.4429 6.77753 32.6569 7.9985 31.8643 9.21294C31.6794 9.49563 31.4848 9.59891 31.1445 9.59891C24.0242 9.58804 16.9028 9.61414 9.78246 9.57391C7.87327 9.56304 6.24242 10.958 6.25003 13.0922C6.27503 19.9549 6.25655 26.8186 6.26742 33.6812C6.26851 34.1085 6.32831 34.5543 6.45986 34.9577C6.92194 36.3667 8.16574 37.1832 9.79442 37.1854C13.7955 37.1887 17.7965 37.1865 21.7986 37.1865H22.3151C22.0411 38.3509 21.7801 39.4566 21.5192 40.5624C21.4822 40.72 21.4714 40.8972 21.3898 41.0288C21.33 41.1256 21.1767 41.2169 21.0626 41.2212C20.4124 41.243 19.759 41.206 19.1099 41.2495C17.9498 41.3256 17.0767 42.1149 16.8626 43.2511C16.8049 43.5523 16.8082 43.8632 16.781 44.2057C15.958 44.2057 15.148 44.2024 14.3369 44.2068C13.8792 44.21 13.5661 44.4308 13.4704 44.7982C13.3551 45.2342 13.5226 45.5365 14.0412 45.8333H36.1784C36.6959 45.5365 36.8645 45.2331 36.7492 44.7982C36.6448 44.4003 36.3241 44.2079 35.7598 44.2057C35.4206 44.2046 35.0814 44.2057 34.7422 44.2057H33.4092C33.4092 44.0589 33.4103 43.9785 33.4092 43.8969C33.3907 42.2204 32.3894 41.2343 30.7031 41.2299C30.228 41.2288 29.7528 41.2114 29.2788 41.2365C28.9668 41.2528 28.8298 41.1614 28.7613 40.8396C28.5754 39.9513 28.346 39.0728 28.1361 38.19C28.06 37.8693 27.9948 37.5453 27.9154 37.1865H28.4634C32.4101 37.1865 36.3578 37.1887 40.3045 37.1821C40.6818 37.1811 41.0688 37.1615 41.433 37.0745C43.0106 36.6983 43.9587 35.4002 43.9587 33.6399C43.962 26.8034 43.9598 19.9679 43.9587 13.1313ZM33.4179 9.80223C34.0964 8.78892 34.7705 7.77344 35.4521 6.7634C36.1447 5.73813 37.3396 5.48915 38.2735 6.16868C39.1966 6.84059 39.3314 8.08874 38.5573 9.0379C36.821 11.1711 35.0716 13.2944 33.3266 15.4211C33.2853 15.4733 33.2353 15.5189 33.1526 15.6059C32.335 14.9981 31.5446 14.411 30.7368 13.8109C31.6414 12.4584 32.5297 11.1297 33.4179 9.80223ZM28.2753 17.489C28.7928 16.716 29.2995 15.9593 29.829 15.1677C30.6096 15.7472 31.3554 16.2996 32.1317 16.8769C31.5283 17.6119 30.9619 18.3012 30.3606 19.0329C29.668 18.5197 28.9885 18.0174 28.2753 17.489ZM29.2636 23.6884C28.7645 24.1418 28.1622 24.244 27.5294 24.2484C26.7184 24.2538 25.9008 24.1799 25.0951 24.2484C24.4199 24.306 23.7578 24.5191 23.0609 24.6691C22.8141 23.3242 22.6782 21.9195 23.2425 20.5441C23.7741 19.2449 25.3745 18.3164 26.7695 18.4914C26.8804 18.5056 26.9956 18.573 27.0891 18.6415C27.9296 19.259 28.7678 19.8798 29.6017 20.5039C29.6963 20.5746 29.8061 20.6616 29.842 20.7648C30.1606 21.6662 30.1725 22.86 29.2636 23.6884ZM30.6009 42.8575C31.5674 42.8575 31.8458 43.1696 31.7545 44.1905H18.4902C18.3162 43.2642 18.6391 42.8586 19.5437 42.8586C23.2294 42.8564 26.9152 42.8575 30.6009 42.8575ZM23.0424 41.193C23.3599 39.8546 23.673 38.5358 23.9883 37.205H26.2302C26.5444 38.526 26.8564 39.8372 27.1794 41.193H23.0424ZM42.3115 33.9857C42.2822 34.8489 41.6722 35.4328 40.8155 35.5393C40.6546 35.5589 40.4915 35.5578 40.3284 35.5578C30.1834 35.5589 20.0384 35.56 9.89227 35.5513C9.54762 35.5513 9.17905 35.5089 8.86266 35.3839C8.34078 35.1773 7.95808 34.7543 7.94068 34.189C7.89719 32.8386 7.92655 31.485 7.92655 30.0683C8.71697 30.0683 9.47477 30.0792 10.2326 30.064C10.6773 30.0542 10.9849 29.752 11.0252 29.3399C11.0611 28.9681 10.8251 28.5973 10.4587 28.5016C10.2782 28.4538 10.0836 28.4484 9.89553 28.4462C9.24645 28.4407 8.59737 28.444 7.88741 28.444V27.9765C7.88741 23.0263 7.88632 18.075 7.88849 13.1248C7.88849 11.8582 8.5267 11.2189 9.78572 11.2189C16.5266 11.2178 23.2675 11.2178 30.0083 11.2178H30.4661C30.3965 11.3515 30.3584 11.4461 30.303 11.5288C29.1733 13.2194 28.047 14.9112 26.9021 16.5909C26.8097 16.7279 26.5879 16.8432 26.4205 16.8519C23.4914 17.0019 21.5333 18.8915 21.267 21.8216C21.1267 23.3731 21.3789 24.8757 21.778 26.3619C21.9389 26.961 22.614 27.1948 23.0652 26.7773C24.0046 25.9075 25.1245 25.7857 26.3215 25.8238C27.0772 25.8488 27.8524 25.8988 28.5884 25.7672C30.4824 25.4313 31.7795 23.6395 31.6588 21.6542C31.6457 21.4378 31.6653 21.2019 31.587 21.0095C31.3652 20.4669 31.5816 20.0929 31.9251 19.6776C34.1681 16.9747 36.3904 14.2556 38.6095 11.5331C38.7998 11.2994 38.9922 11.195 39.2955 11.2113C39.7554 11.2374 40.2175 11.208 40.6785 11.2211C41.5863 11.2472 42.2289 11.8549 42.3191 12.7606C42.3311 12.8813 42.3322 13.0041 42.3322 13.1259V28.444H41.7473C33.5549 28.444 25.3637 28.444 17.1713 28.4451C16.9822 28.4451 16.7897 28.4418 16.6038 28.4734C16.1776 28.544 15.8993 28.8898 15.9167 29.2986C15.9351 29.7117 16.2396 30.0249 16.6712 30.0629C16.8321 30.077 16.9963 30.0716 17.1583 30.0716H42.2506C42.2844 30.1336 42.3191 30.1684 42.3191 30.2032C42.3224 31.4644 42.3528 32.7266 42.3115 33.9857Z" fill="#6F768E"/>
<path d="M14.2847 29.265C14.2847 29.7086 13.9325 30.0609 13.4845 30.0652C13.0355 30.0707 12.6756 29.7293 12.6626 29.2846C12.6495 28.8323 13.029 28.4496 13.4834 28.4561C13.9216 28.4616 14.2836 28.828 14.2847 29.265Z" fill="#6F768E"/>
</svg>
