<svg width="50" height="50" viewBox="0 0 50 50" fill="none" xmlns="http://www.w3.org/2000/svg">
<path d="M45.8304 32.8143C45.8271 31.6075 45.1717 30.9119 43.9609 30.7979C43.838 30.7871 43.6728 30.672 43.6185 30.5613C43.4261 30.1609 43.2717 29.742 43.0989 29.322C43.1152 29.297 43.1293 29.2547 43.1587 29.2297C44.0098 28.5069 44.0826 27.1645 43.1109 26.2985C42.9598 26.1639 42.8761 25.8785 42.875 25.6625C42.862 20.1233 42.8663 14.5842 42.863 9.04506C42.863 8.70646 42.8533 8.36678 42.8196 8.03035C42.6326 6.14201 41.1565 4.15382 38.6326 4.16684C28.5295 4.21893 18.4252 4.20374 8.32204 4.17444C6.30684 4.16901 5.04489 5.45395 4.5612 6.69657C4.39599 7.12091 4.29599 7.5702 4.16664 8.00756V32.1426C4.19273 32.2305 4.2286 32.3173 4.2449 32.4074C4.54925 34.1774 5.95576 36.0831 8.44813 35.9702C9.84268 35.9073 11.2416 35.9594 12.6383 35.9583C13.2644 35.9572 13.6394 35.6523 13.6459 35.1476C13.6513 34.6397 13.2796 34.3272 12.6568 34.3272C11.2188 34.325 9.78072 34.3055 8.34378 34.3326C7.23509 34.3543 6.49706 33.8269 6.10467 32.8491C5.91337 32.3726 5.81771 31.8267 5.81445 31.3123C5.7938 26.586 5.8025 21.8587 5.8025 17.1324V16.6885H41.1837V24.9158C40.5381 24.88 40.012 25.0699 39.5674 25.5062C39.4946 25.5778 39.3022 25.5865 39.1913 25.5485C38.8718 25.44 38.574 25.2664 38.2511 25.1698C37.9859 25.0906 37.9066 24.9614 37.8881 24.689C37.8153 23.6407 37.1218 22.9656 36.0751 22.9244C35.4935 22.9005 34.9066 22.9016 34.3273 22.9504C33.587 23.0145 32.8914 23.5549 32.8349 24.2831C32.7816 24.9885 32.4414 25.2566 31.8512 25.402C31.761 25.4237 31.6686 25.465 31.5936 25.5192C31.3675 25.682 31.2088 25.6375 31.0001 25.4454C30.2349 24.7379 29.1903 24.7617 28.4393 25.4823C28.0675 25.8383 27.699 26.1986 27.349 26.5763C26.7012 27.2752 26.6914 28.2942 27.3077 29.0192C27.4034 29.1321 27.5056 29.2373 27.5914 29.3317C27.4208 29.7561 27.2762 30.1641 27.0904 30.5537C27.0371 30.6655 26.8751 30.786 26.7523 30.7979C25.5175 30.9108 24.8675 31.5999 24.861 32.8371C24.8578 33.3201 24.8599 33.803 24.8599 34.3261H24.373C22.9763 34.3261 21.5795 34.3228 20.1828 34.3283C19.5828 34.3304 19.2165 34.7363 19.3013 35.28C19.3676 35.6989 19.7067 35.9561 20.2241 35.9572C22.2589 35.9605 24.2936 35.9583 26.3273 35.9583C26.9947 35.9583 26.9936 35.9594 27.2327 36.5595C27.3034 36.7354 27.3621 36.9209 27.461 37.0794C27.6132 37.3214 27.5882 37.4842 27.3795 37.7023C26.7034 38.4132 26.6947 39.4409 27.3501 40.168C27.7306 40.5902 28.1393 40.9896 28.5599 41.3716C29.1251 41.8838 30.0447 42.0846 30.5816 41.5984C31.2305 41.0123 31.7229 41.2771 32.3284 41.5289C32.6262 41.6526 32.7642 41.7644 32.786 42.1139C32.8479 43.1362 33.6131 43.8286 34.6327 43.8427C35.1338 43.8492 35.6359 43.8535 36.1381 43.8394C36.9142 43.8199 37.7283 43.3294 37.7935 42.5936C37.8707 41.7286 38.3609 41.4616 39.0359 41.2609C39.0479 41.2576 39.062 41.2533 39.0729 41.2457C39.3055 41.0883 39.4772 41.123 39.6946 41.3292C40.4011 41.9999 41.4446 42.0075 42.1641 41.3553C42.5859 40.9733 42.9891 40.5685 43.3696 40.1463C43.8989 39.5592 44.0511 38.6313 43.5467 38.0507C43.0717 37.5048 43.1641 37.0826 43.462 36.5693C43.5087 36.4879 43.5413 36.3946 43.5587 36.3034C43.6076 36.0299 43.7554 35.9551 44.0369 35.9475C45.0554 35.9214 45.8087 35.1357 45.8293 34.1145C45.8369 33.6814 45.8315 33.2473 45.8304 32.8143ZM5.82424 14.9847C5.81554 14.849 5.80358 14.7307 5.80358 14.6124C5.8025 12.6481 5.8025 10.6849 5.8025 8.72057C5.8025 7.96849 5.98728 7.27284 6.45466 6.67053C6.91879 6.07364 7.52748 5.81317 8.29269 5.81426C16.9589 5.82294 25.6251 5.81969 34.2914 5.81969H38.5229C40.1185 5.81969 41.1533 6.77363 41.1946 8.3874C41.2413 10.2139 41.212 12.0436 41.2152 13.8723C41.2163 14.2348 41.2152 14.5972 41.2152 14.9847H5.82424ZM43.3359 34.3261C42.5728 34.3272 42.4174 34.4769 42.1794 35.1856C41.9739 35.7966 41.7185 36.3957 41.4315 36.9741C41.1381 37.5634 41.1413 37.8174 41.5935 38.2753C42.2598 38.9525 42.2598 38.9525 41.6022 39.6113C40.9435 40.2722 40.9435 40.2722 40.2652 39.608C39.7979 39.15 39.5544 39.1511 38.962 39.4398C38.3457 39.7415 37.7044 39.9976 37.0566 40.2255C36.487 40.4252 36.3011 40.6173 36.2946 41.2088C36.2816 42.3613 36.4414 42.2061 35.2696 42.2105C34.3175 42.2137 34.4175 42.3179 34.4131 41.3737C34.4099 40.5945 34.2501 40.4274 33.5262 40.1875C32.9131 39.9846 32.3142 39.7263 31.7349 39.4409C31.1436 39.15 30.8936 39.1544 30.4316 39.608C29.7577 40.2689 29.7577 40.2689 29.0979 39.6102C28.4393 38.9525 28.4393 38.9525 29.0806 38.3068C29.5545 37.8304 29.561 37.5667 29.2697 36.9752C28.9729 36.3718 28.7164 35.7445 28.498 35.1096C28.2969 34.5236 28.098 34.3315 27.486 34.3261C26.5099 34.3185 26.5099 34.3185 26.5099 33.3591C26.5099 32.4605 26.5099 32.4605 27.4121 32.4529C28.0903 32.4464 28.2882 32.2522 28.5066 31.6032C28.7153 30.9792 28.9816 30.3714 29.2686 29.7778C29.5436 29.2059 29.5371 28.9519 29.1066 28.5059C28.4273 27.8026 28.4273 27.8026 29.1164 27.1156C29.3056 26.9279 29.4969 26.7423 29.711 26.5329C29.8425 26.6349 29.9436 26.6967 30.0251 26.7781C30.8197 27.5834 30.9012 27.8037 32.1338 27.0939C32.5729 26.8422 33.0783 26.6924 33.5675 26.5405C34.1849 26.3484 34.3675 26.1443 34.3729 25.5062C34.3816 24.5642 34.3816 24.5642 35.3251 24.5642C36.2403 24.5642 36.2403 24.5642 36.2544 25.4845C36.2631 26.1194 36.4631 26.3245 37.0598 26.5296C37.7207 26.7564 38.3696 27.0299 39.0011 27.3305C39.5316 27.5834 39.8142 27.5758 40.2413 27.1656C40.95 26.4851 40.9544 26.4819 41.6337 27.171C42.3522 27.8981 42.3565 27.6876 41.6424 28.4158C41.1315 28.9367 41.1294 29.1603 41.4544 29.8147C41.7533 30.417 41.9989 31.0486 42.2217 31.6835C42.4141 32.2337 42.6315 32.4377 43.2109 32.4518C44.1946 32.4768 44.1956 32.4768 44.1946 33.4828C44.1935 34.4053 44.2837 34.325 43.3359 34.3261Z" fill="#6F768E"/>
<path d="M23.9589 26.3365C23.2534 27.1385 22.5415 27.9362 21.8274 28.7295C21.4458 29.1528 20.935 29.2027 20.5774 28.8673C20.2285 28.5418 20.2361 28.0599 20.6045 27.6399C21.2198 26.9388 21.8415 26.2432 22.4589 25.5443C22.4676 25.5345 22.4708 25.5204 22.4969 25.4618C21.8698 24.7564 21.2491 24.0618 20.6317 23.364C20.2372 22.918 20.2198 22.4426 20.5785 22.1073C20.9469 21.7633 21.4458 21.824 21.8535 22.2766C22.5589 23.0601 23.261 23.8469 23.96 24.6381C24.4643 25.21 24.4654 25.7603 23.9589 26.3365Z" fill="#6F768E"/>
<path d="M12.5394 28.8889C12.2242 29.1624 11.7416 29.1613 11.434 28.8476C11.0644 28.4711 10.7253 28.0641 10.3731 27.6701C9.95791 27.2056 9.53618 26.7466 9.13075 26.2734C8.69271 25.7612 8.69162 25.2044 9.1351 24.6965C9.85792 23.8717 10.5905 23.0545 11.3253 22.2395C11.6981 21.826 12.184 21.7729 12.5448 22.0887C12.9133 22.4132 12.9122 22.9145 12.5296 23.3476C11.9829 23.9672 11.4296 24.5815 10.8807 25.199C10.8014 25.288 10.7307 25.3846 10.6373 25.5007C11.222 26.1584 11.797 26.803 12.372 27.4498C12.4709 27.5605 12.5753 27.6691 12.6601 27.7895C12.9144 28.1542 12.8601 28.6121 12.5394 28.8889Z" fill="#6F768E"/>
<path d="M18.1948 22.2135C18.0318 22.9058 17.8503 23.6829 17.6655 24.4588C17.3144 25.9315 16.96 27.4042 16.6068 28.8769C16.5883 28.9551 16.5666 29.0343 16.5405 29.1113C16.3894 29.5552 15.9785 29.7929 15.5557 29.6811C15.1285 29.5682 14.8666 29.171 14.9698 28.7098C15.2427 27.4965 15.5351 26.2875 15.8231 25.0764C16.0633 24.0638 16.3046 23.0513 16.5503 22.0398C16.6666 21.5612 16.934 21.3008 17.3242 21.2682C17.8046 21.227 18.2122 21.6285 18.1948 22.2135Z" fill="#6F768E"/>
<path d="M17.3035 35.1541C17.2937 35.5958 16.9404 35.9485 16.497 35.9561C16.048 35.9647 15.6567 35.5871 15.6535 35.1421C15.6502 34.6917 16.0263 34.3249 16.4883 34.3282C16.9546 34.3303 17.3122 34.6928 17.3035 35.1541Z" fill="#6F768E"/>
<path d="M35.8196 7.70376C33.4066 7.68205 30.9925 7.6929 28.5795 7.70159C27.9077 7.70376 27.3023 7.92406 26.7893 8.36685C25.9164 9.11893 25.6023 10.2769 25.9751 11.3502C26.348 12.4246 27.3469 13.1745 28.5045 13.1962C29.7371 13.219 30.9708 13.2017 32.2044 13.2017V13.2049H35.7838C37.374 13.18 38.5816 12.0144 38.5957 10.4907C38.6098 8.93769 37.4207 7.71787 35.8196 7.70376ZM36.8598 10.9042C36.6587 11.3404 36.2914 11.5618 35.8218 11.5629C33.4229 11.5716 31.024 11.5749 28.6251 11.5618C27.9447 11.5586 27.4632 11.0724 27.461 10.4538C27.4588 9.83737 27.9382 9.35877 28.624 9.349C29.8295 9.33381 31.036 9.34466 32.2425 9.34466C33.4218 9.34466 34.6012 9.32947 35.7794 9.349C36.6685 9.36311 37.2055 10.1532 36.8598 10.9042Z" fill="#6F768E"/>
<path d="M18.91 7.70035C17.41 7.70361 16.173 8.93537 16.1611 10.4374C16.1491 11.948 17.4045 13.2048 18.9208 13.2015C20.4252 13.1983 21.6589 11.9687 21.6643 10.4667C21.6708 8.94514 20.4284 7.6971 18.91 7.70035ZM18.898 11.5617C18.285 11.5498 17.8024 11.0429 17.8154 10.4243C17.8274 9.8242 18.3143 9.34886 18.9154 9.34886C19.5284 9.34994 20.035 9.85567 20.0274 10.4612C20.0208 11.0657 19.4991 11.5736 18.898 11.5617Z" fill="#6F768E"/>
<path d="M11.7775 7.69927C10.2731 7.70144 9.04269 8.92995 9.03726 10.4352C9.03074 11.9502 10.2372 13.182 11.7438 13.2015C13.2698 13.221 14.5166 11.998 14.5263 10.4688C14.5361 8.94514 13.2981 7.6971 11.7775 7.69927ZM11.7688 11.5639C11.1633 11.5552 10.6655 11.0397 10.6753 10.4309C10.6851 9.83505 11.1742 9.3532 11.772 9.34885C12.3883 9.34343 12.8851 9.83831 12.8829 10.4547C12.8818 11.0657 12.372 11.5715 11.7688 11.5639Z" fill="#6F768E"/>
<path d="M35.3707 28.3844C32.5979 28.3714 30.3479 30.5994 30.3392 33.3679C30.3316 36.1234 32.5881 38.3883 35.3446 38.3894C38.0805 38.3905 40.3467 36.1451 40.3663 33.4146C40.3848 30.6613 38.1359 28.3974 35.3707 28.3844ZM35.3511 36.7496C33.4859 36.7517 31.974 35.2269 31.9838 33.3538C31.9946 31.498 33.4979 30.0166 35.3653 30.0221C37.2185 30.0275 38.7283 31.5414 38.7218 33.3874C38.7142 35.2313 37.1946 36.7474 35.3511 36.7496Z" fill="#6F768E"/>
</svg>
