<svg width="50" height="50" viewBox="0 0 50 50" fill="none" xmlns="http://www.w3.org/2000/svg">
<path d="M43.515 31.3428C42.7973 29.1642 41.4415 27.4935 39.188 26.6431C39.232 26.5739 39.2572 26.5161 39.2979 26.4714C40.5292 25.127 41.0541 23.4766 41.3324 21.7261C41.4219 21.1654 41.0508 20.787 40.4486 20.7666C38.8064 20.7105 37.2333 20.9497 35.7489 21.9238V21.4274C35.7489 17.5497 35.753 13.6719 35.7473 9.79413C35.7448 7.90855 34.6796 6.45835 32.9641 6.01565C32.6019 5.92206 32.2154 5.88951 31.8394 5.88462C30.661 5.86835 29.4818 5.87893 28.2562 5.87893C28.2929 5.01467 27.864 4.47105 27.0998 4.16669H14.8887C14.1563 4.48733 13.7177 5.01223 13.7608 5.87893C13.5752 5.87893 13.4279 5.87811 13.2806 5.87893C12.1543 5.87974 11.028 5.86102 9.90256 5.88544C8.00721 5.92694 6.32834 7.41132 6.29416 9.29608C6.21847 13.4042 6.26161 17.5147 6.26812 21.6236C6.26893 22.0923 6.63677 22.4097 7.0868 22.404C7.51893 22.3983 7.84526 22.0882 7.88351 21.6398C7.89491 21.5047 7.8884 21.3688 7.8884 21.2329C7.8884 17.395 7.88595 13.5563 7.89002 9.71844C7.89165 8.41392 8.78765 7.51548 10.0848 7.50734C11.1843 7.50083 12.2829 7.50572 13.3816 7.50734C13.5004 7.50734 13.6184 7.51955 13.764 7.52769C13.764 7.6758 13.7567 7.79706 13.7657 7.9175C13.8267 8.75897 14.4371 9.35956 15.285 9.36119C19.0969 9.36932 22.9096 9.36932 26.7214 9.36119C27.606 9.35956 28.2131 8.7313 28.2432 7.84263C28.2465 7.73928 28.2603 7.63593 28.2709 7.50653C29.4346 7.50653 30.5748 7.55129 31.7092 7.49432C33.0569 7.42678 34.1522 8.36672 34.136 9.90643C34.0896 14.2057 34.1091 18.5051 34.1311 22.8044C34.1343 23.4286 34.0204 23.9771 33.6477 24.4776C33.6257 24.4637 33.585 24.4491 33.5598 24.4214C32.5767 23.2967 31.2925 22.8963 29.8497 22.8882C28.856 22.8817 28.5346 23.2626 28.7787 24.2391C28.9602 24.9634 29.2247 25.6673 29.455 26.3884C29.4338 26.3949 29.3711 26.4209 29.306 26.4356C27.1348 26.9116 25.6399 28.2398 24.6657 30.1823C23.5199 32.4667 23.3026 34.8991 23.6485 37.395C23.7575 38.1787 23.9626 38.9486 24.1319 39.7656H23.7274C19.223 39.7656 14.7186 39.7656 10.2151 39.7648C10.0792 39.7648 9.94325 39.7624 9.80815 39.7502C8.92518 39.6721 8.18299 39.0625 7.97385 38.2064C7.90386 37.9208 7.89247 37.6164 7.89165 37.321C7.88595 34.3099 7.88595 31.2988 7.89165 28.2878C7.89247 27.9077 7.80946 27.5847 7.45871 27.3902C6.87033 27.0638 6.26161 27.5025 6.26161 28.2577C6.25916 31.377 6.25672 34.4963 6.26649 37.6156C6.2673 37.95 6.31288 38.2943 6.39914 38.6182C6.8508 40.3312 8.30099 41.39 10.189 41.3916C14.9367 41.3957 19.6853 41.3965 24.4338 41.3851C24.7634 41.3843 24.9302 41.4909 25.0922 41.7774C25.9874 43.3692 27.2105 44.6297 28.9358 45.3117C29.5453 45.5526 30.2069 45.6633 30.8441 45.8334H36.8679C37.1959 45.7609 37.5254 45.6991 37.8501 45.6153C39.9896 45.0643 41.5277 43.7256 42.5645 41.8335C44.398 38.4872 44.7056 34.9593 43.515 31.3428ZM26.6034 7.70591H15.4258V5.81626H26.6034V7.70591ZM39.542 22.4292C39.1832 23.8688 38.6184 25.153 37.3521 25.9872C37.0876 26.1613 36.7401 26.2337 36.4195 26.2923C35.8897 26.3884 35.351 26.4339 34.8171 26.5015C34.7121 24.4507 37.1682 22.3063 39.542 22.4292ZM32.8021 26.4697C31.5106 26.4461 31.0752 26.0921 30.5609 24.6118C31.6237 24.6444 32.6231 25.485 32.8021 26.4697ZM41.0142 41.2451C39.8586 43.2365 38.1049 44.2928 35.7408 44.209C35.1044 44.1862 34.4664 44.2057 33.8292 44.2057V44.1838C32.8941 44.1838 31.9533 44.2464 31.024 44.1699C29.2922 44.0283 27.973 43.1234 26.9883 41.7277C25.5577 39.6965 25.0669 37.3983 25.141 34.9544C25.1817 33.6288 25.4421 32.347 26.0069 31.1385C27.1967 28.5946 29.3964 27.4243 32.1267 28.0721C33.3246 28.357 34.4061 28.3309 35.5975 28.064C38.4849 27.417 40.8148 28.7305 41.8638 31.5837C43.087 34.9121 42.7973 38.1755 41.0142 41.2451Z" fill="#6F768E"/>
<path d="M16.098 26.2313C13.1724 26.2215 10.753 28.632 10.7554 31.5536C10.7571 34.48 13.1716 36.8831 16.1005 36.8742C19.0139 36.8652 21.3983 34.4694 21.3967 31.5527C21.3943 28.6344 19.0106 26.2402 16.098 26.2313ZM16.1119 35.2433C14.0766 35.2539 12.3969 33.5954 12.3863 31.5658C12.3757 29.5435 14.057 27.8597 16.0858 27.8622C18.0984 27.8638 19.7602 29.5247 19.7667 31.5405C19.7732 33.5588 18.1195 35.2336 16.1119 35.2433Z" fill="#6F768E"/>
<path d="M31.592 14.6127C31.6001 15.1693 31.225 15.4428 30.4462 15.4428C27.4758 15.4436 24.5054 15.4428 21.5358 15.4428C18.5785 15.4428 15.6219 15.4436 12.6654 15.4411C12.4766 15.4411 12.2821 15.4395 12.0998 15.3988C11.7442 15.3199 11.4992 14.9838 11.5017 14.6216C11.5041 14.244 11.7743 13.9104 12.1495 13.8444C12.3081 13.8168 12.4733 13.8168 12.6361 13.8168C18.576 13.8152 24.5168 13.8152 30.4576 13.816C31.2217 13.816 31.5839 14.0715 31.592 14.6127Z" fill="#6F768E"/>
<path d="M27.4628 19.6345C27.2845 19.685 27.0892 19.6923 26.9012 19.6931C24.516 19.6964 22.1307 19.6956 19.7447 19.6956C17.3594 19.6956 14.9734 19.6972 12.5881 19.6923C12.4009 19.6923 12.2048 19.6793 12.029 19.6223C11.6766 19.5092 11.4707 19.1552 11.509 18.7939C11.5505 18.4122 11.8386 18.1184 12.2227 18.0777C12.357 18.0631 12.4937 18.068 12.6288 18.068H26.9012C27.0372 18.068 27.1731 18.0631 27.3073 18.0777C27.698 18.1184 27.982 18.4106 28.0145 18.7939C28.0487 19.1918 27.842 19.5271 27.4628 19.6345Z" fill="#6F768E"/>
<path d="M25.7106 23.1372C25.7001 23.6263 25.3282 23.938 24.7325 23.938C20.639 23.9396 16.5448 23.9396 12.4506 23.938C11.9574 23.9372 11.6481 23.7305 11.5423 23.3447C11.4414 22.9761 11.544 22.6554 11.8671 22.4626C12.0396 22.3592 12.2748 22.3185 12.4815 22.3177C14.529 22.3079 16.5757 22.3112 18.6232 22.3112C20.6569 22.3112 22.6898 22.3104 24.7235 22.312C25.342 22.3128 25.722 22.6326 25.7106 23.1372Z" fill="#6F768E"/>
<path d="M7.88599 24.8269C7.89494 25.2891 7.53198 25.6578 7.06974 25.6561C6.60913 25.6537 6.24943 25.2802 6.26326 24.8179C6.27629 24.376 6.64005 24.0228 7.07869 24.0253C7.51733 24.0277 7.87785 24.3858 7.88599 24.8269Z" fill="#6F768E"/>
<path d="M18.4638 30.5413C18.4272 30.7033 18.3238 30.8652 18.2107 30.9914C17.5539 31.7295 16.8891 32.4603 16.2193 33.187C15.7831 33.6606 15.3542 33.6745 14.8806 33.2407C14.5714 32.9575 14.2637 32.6719 13.9651 32.3773C13.5907 32.0086 13.5631 31.5268 13.8853 31.185C14.2035 30.8481 14.6837 30.8506 15.0824 31.1956C15.2143 31.3096 15.3388 31.4308 15.4869 31.5675C16.0346 30.9702 16.5578 30.3883 17.0941 29.8195C17.366 29.5322 17.7037 29.4687 18.0577 29.6543C18.4125 29.8406 18.5484 30.1588 18.4638 30.5413Z" fill="#6F768E"/>
</svg>
