<svg width="50" height="50" viewBox="0 0 50 50" fill="none" xmlns="http://www.w3.org/2000/svg">
<path d="M43.5125 38.6002C43.935 40.3454 42.8348 42.0774 41.0043 42.5502C39.2165 43.0129 37.3351 42.0406 36.7838 40.3447C36.6944 40.068 36.5729 39.993 36.2841 39.9992C35.4784 40.0187 34.6703 39.975 33.8654 40.0148C33.1393 40.0516 32.5461 39.8562 32.0981 39.3091C31.9102 39.0785 31.7059 39.0207 31.431 39.1559C31.3113 39.2153 31.1767 39.2489 31.0462 39.288C30.3037 39.51 30.3029 39.51 30.3029 40.2602C30.3029 40.9504 30.2701 41.642 30.3119 42.3298C30.3612 43.1481 30.0305 43.7038 29.2264 44C29.2199 43.8249 29.3856 43.8062 29.4939 43.7452C29.9591 43.4826 30.1856 43.102 30.1823 42.5846C30.1757 41.6991 30.1765 40.8144 30.1823 39.9289C30.1848 39.4615 30.2323 39.4084 30.7017 39.2669C30.7164 39.2622 30.7222 39.2614 30.7238 39.2614H30.7246C30.7271 39.2606 30.732 39.2575 30.7402 39.2544C31.468 38.9261 32.1055 38.9214 32.6437 39.6131C32.8644 39.8976 33.2697 39.9046 33.6307 39.907C34.4914 39.9117 35.3529 39.9164 36.2136 39.9046C36.5779 39.9 36.7789 40.0234 36.9118 40.3642C37.7659 42.5549 40.4119 43.2411 42.3146 41.7788C43.3328 40.9957 43.7545 39.5178 43.3057 38.297C42.8413 37.0332 41.6155 36.1571 40.2839 36.1391C38.5954 36.1164 37.4812 36.8417 36.8814 38.3783C36.7698 38.6635 36.6025 38.7987 36.2808 38.7964C35.4464 38.7901 34.6128 38.7948 33.7792 38.7941C33.5167 38.7941 33.3058 38.7018 33.122 38.526C32.4837 37.9179 31.847 37.3099 31.2079 36.7034C31.0118 36.5182 30.9174 36.3056 30.9174 36.0414C30.9199 34.8175 30.9133 33.5936 30.9224 32.3697C30.9248 31.9445 31.006 31.8742 31.4548 31.864C31.879 31.8554 32.3032 31.8726 32.7266 31.8593C33.081 31.8484 33.282 31.993 33.392 32.3118C33.6184 32.9723 34.0147 33.517 34.6161 33.9297C36.7116 35.3669 39.6103 34.1782 39.9516 31.7366C40.1682 30.1899 39.1738 28.7104 37.6166 28.2618C36.0084 27.7991 34.2789 28.4494 33.6283 29.8984C33.5068 30.1696 33.3723 30.3728 33.2098 30.515C33.2279 30.4814 33.2435 30.4416 33.2582 30.3947C33.7563 28.8386 35.3488 27.8187 36.943 28.0141C38.7488 28.2352 40.0017 29.5021 40.1067 31.2138C40.2019 32.7737 39.0229 34.218 37.3516 34.5893C35.613 34.9746 33.7997 33.9726 33.2705 32.3111C33.191 32.061 33.0958 31.9797 32.8299 31.9891C32.3114 32.0086 31.7912 32.0016 31.2719 31.9914C31.0774 31.9875 31.0118 32.0445 31.0126 32.2345C31.0192 33.5623 31.0184 34.8902 31.0126 36.218C31.0126 36.3658 31.0799 36.458 31.18 36.5533C31.8684 37.2044 32.5543 37.8585 33.2377 38.515C33.3493 38.6229 33.465 38.6784 33.6315 38.6768C34.5603 38.6698 35.4899 38.6604 36.4187 38.6815C36.7017 38.6878 36.7116 38.5268 36.7674 38.3564C37.2449 36.8949 38.6422 35.9531 40.2396 36.0117C41.8403 36.0711 43.1515 37.1075 43.5125 38.6002Z" fill="#6F768E"/>
<path d="M42.4441 27.2059C40.6243 27.6803 38.7348 26.719 38.1834 25.0105C38.0915 24.7261 37.966 24.662 37.6788 24.6635C35.1091 24.6737 32.5394 24.6737 29.9705 24.6627C29.6727 24.662 29.5086 24.7026 29.4249 25.0199C29.2846 25.5443 28.9662 25.9906 28.5486 26.3587C28.4009 26.4892 28.3837 26.5846 28.4813 26.7534C29.1935 27.9804 29.8975 29.2114 30.5957 30.4462C30.6851 30.6049 30.7844 30.6674 30.9748 30.6643C31.6172 30.6534 32.2596 30.6518 32.902 30.6651C32.9357 30.6659 32.9644 30.6643 32.9907 30.6612C32.7667 30.7714 32.4951 30.7987 32.1521 30.7557C31.8026 30.7112 31.4424 30.7456 31.0872 30.7471C30.8008 30.7495 30.5957 30.6479 30.4521 30.4017C29.7966 29.2747 29.1566 28.1391 28.5043 27.0105C28.3148 26.6838 28.3033 26.4197 28.602 26.1383C28.9351 25.8241 29.1714 25.438 29.3125 25.009C29.4085 24.7167 29.6079 24.5963 29.9229 24.5963C32.5066 24.5955 35.0902 24.5971 37.6731 24.5947C38.0111 24.594 38.1924 24.737 38.3089 25.0332C38.8308 26.3587 39.8498 27.1223 41.3209 27.2161C43.3097 27.3435 44.7956 25.7858 44.8637 24.2774C44.9154 23.1332 44.5355 22.1852 43.578 21.4631C41.8361 20.1516 39.2082 20.8144 38.377 22.78C38.1137 23.4021 38.1137 23.4037 37.431 23.4037C34.9975 23.4044 32.5648 23.4052 30.1321 23.4037C29.5053 23.4037 29.4823 23.3912 29.26 22.8472C29.0934 22.4392 28.8358 22.0883 28.5273 21.7726C28.3312 21.5717 28.3008 21.3747 28.4329 21.1356C29.1024 19.9273 29.7916 18.7284 30.494 17.5373C30.6055 17.3482 30.777 17.2622 30.9994 17.2583C31.6147 17.2474 32.2293 17.2552 32.8446 17.2544C33.2032 17.2544 33.3287 17.4756 33.4362 17.7499C33.8899 18.9066 34.7596 19.5983 36.0338 19.8351C37.8043 20.1649 39.561 18.9996 39.9294 17.2731C40.2559 15.739 39.2705 14.0953 37.6632 13.6084C35.9886 13.1012 34.1803 13.8288 33.5486 15.3654C33.2778 16.0234 32.9061 16.222 32.2375 16.1438C31.9544 16.111 31.6639 16.1368 31.3768 16.136C31.0749 16.136 30.9222 16.007 30.9214 15.7124C30.9173 14.4361 30.9165 13.1598 30.9214 11.8843C30.9222 11.6452 31.0346 11.4631 31.2053 11.2997C31.8428 10.6917 32.4828 10.086 33.1178 9.47557C33.3262 9.27549 33.5691 9.20203 33.8571 9.20359C34.6365 9.20828 35.416 9.21766 36.1946 9.20046C36.5843 9.19187 36.7845 9.33724 36.9092 9.69128C37.3014 10.8003 38.1161 11.5068 39.3033 11.7898C41.1363 12.2266 42.984 11.1239 43.4057 9.36615C43.8241 7.62172 42.6697 5.90778 40.822 5.53028C39.1663 5.19265 37.5557 6.03282 36.9322 7.55764C36.7205 8.07659 36.7057 8.08831 36.1339 8.09066C35.3273 8.09378 34.5208 8.09847 33.7151 8.08909C33.1802 8.08206 32.7133 8.20867 32.3679 8.62133C32.0643 8.98397 31.7181 9.04493 31.2455 8.89488C30.0534 8.5166 30.1896 8.73388 30.1814 7.48183C30.1764 6.83079 30.1666 6.17976 30.1838 5.52872C30.2002 4.94021 30.0009 4.48613 29.4232 4.21727C29.3314 4.17507 29.2099 4.13912 29.2263 4C30.0337 4.29465 30.3528 4.85268 30.3126 5.67096C30.27 6.51504 30.3151 7.36303 30.2954 8.20867C30.2897 8.45408 30.3791 8.56272 30.6137 8.59789C30.6408 8.60179 30.6695 8.60492 30.6933 8.61586C31.394 8.93239 32.025 9.01524 32.555 8.29464C32.7511 8.02735 33.1441 7.99296 33.4961 7.99374C34.4388 7.99453 35.3823 7.98437 36.325 8C36.5843 8.00469 36.6943 7.94216 36.7738 7.69285C37.2456 6.21649 38.6765 5.26456 40.2772 5.3349C41.8386 5.40367 43.1538 6.45877 43.5115 7.92887C43.93 9.65142 42.8297 11.4162 41.0493 11.8789C39.232 12.3509 37.3334 11.3857 36.787 9.67878C36.6901 9.37553 36.5564 9.31223 36.2545 9.31926C35.4217 9.33958 34.5873 9.33333 33.7537 9.32239C33.519 9.31926 33.3459 9.37319 33.1769 9.53888C32.5295 10.1735 31.8691 10.7964 31.2061 11.417C31.0699 11.5451 31.0109 11.6749 31.0117 11.8601C31.0199 13.1364 31.0248 14.4119 31.0092 15.6882C31.0059 15.9523 31.0896 16.0203 31.3546 16.0102C31.8461 15.9922 32.3392 15.9914 32.8307 16.0109C33.0965 16.0211 33.1925 15.9382 33.2704 15.6889C33.7176 14.2665 35.1362 13.295 36.659 13.3341C38.2384 13.3747 39.5708 14.3579 39.977 15.7819C40.4742 17.5279 39.4182 19.3583 37.6255 19.8562C35.7753 20.3704 33.8538 19.4201 33.286 17.678C33.1908 17.3857 33.0612 17.3263 32.779 17.3349C32.1784 17.3513 31.5762 17.3466 30.9748 17.3357C30.7844 17.3318 30.6851 17.3951 30.5949 17.5537C29.8975 18.7886 29.1935 20.0195 28.4813 21.2466C28.3837 21.4154 28.4018 21.51 28.5494 21.6405C28.9974 22.0383 29.3084 22.526 29.4659 23.0903C29.5192 23.2817 29.6095 23.3349 29.8056 23.3341C32.4705 23.3294 35.1362 23.3263 37.8011 23.338C38.0669 23.3388 38.1063 23.2091 38.167 23.0254C38.642 21.5842 40.0721 20.6026 41.5957 20.6651C43.2293 20.7315 44.5429 21.7616 44.9096 23.2645C45.3313 24.9894 44.2368 26.7386 42.4441 27.2059Z" fill="#6F768E"/>
<path d="M21.0783 16.9636C20.842 16.637 20.4302 16.5783 20.0347 16.8386C17.7841 18.3228 16.5731 20.3783 16.3377 22.9668C16.3344 23.0316 16.3303 23.0965 16.327 23.1614C16.3073 23.6663 16.5395 23.9695 16.967 23.9969C17.3854 24.0242 17.6931 23.7374 17.7193 23.2481C17.8424 20.9933 18.8828 19.2302 20.8207 17.939C21.217 17.6749 21.3113 17.2849 21.0783 16.9636ZM21.0783 16.9636C20.842 16.637 20.4302 16.5783 20.0347 16.8386C17.7841 18.3228 16.5731 20.3783 16.3377 22.9668C16.3344 23.0316 16.3303 23.0965 16.327 23.1614C16.3073 23.6663 16.5395 23.9695 16.967 23.9969C17.3854 24.0242 17.6931 23.7374 17.7193 23.2481C17.8424 20.9933 18.8828 19.2302 20.8207 17.939C21.217 17.6749 21.3113 17.2849 21.0783 16.9636ZM21.0783 16.9636C20.842 16.637 20.4302 16.5783 20.0347 16.8386C17.7841 18.3228 16.5731 20.3783 16.3377 22.9668C16.3344 23.0316 16.3303 23.0965 16.327 23.1614C16.3073 23.6663 16.5395 23.9695 16.967 23.9969C17.3854 24.0242 17.6931 23.7374 17.7193 23.2481C17.8424 20.9933 18.8828 19.2302 20.8207 17.939C21.217 17.6749 21.3113 17.2849 21.0783 16.9636ZM21.0783 16.9636C20.842 16.637 20.4302 16.5783 20.0347 16.8386C17.7841 18.3228 16.5731 20.3783 16.3377 22.9668C16.3344 23.0316 16.3303 23.0965 16.327 23.1614C16.3073 23.6663 16.5395 23.9695 16.967 23.9969C17.3854 24.0242 17.6931 23.7374 17.7193 23.2481C17.8424 20.9933 18.8828 19.2302 20.8207 17.939C21.217 17.6749 21.3113 17.2849 21.0783 16.9636ZM21.0783 16.9636C20.842 16.637 20.4302 16.5783 20.0347 16.8386C17.7841 18.3228 16.5731 20.3783 16.3377 22.9668C16.3344 23.0316 16.3303 23.0965 16.327 23.1614C16.3073 23.6663 16.5395 23.9695 16.967 23.9969C17.3854 24.0242 17.6931 23.7374 17.7193 23.2481C17.8424 20.9933 18.8828 19.2302 20.8207 17.939C21.217 17.6749 21.3113 17.2849 21.0783 16.9636ZM21.0783 16.9636C20.842 16.637 20.4302 16.5783 20.0347 16.8386C17.7841 18.3228 16.5731 20.3783 16.3377 22.9668C16.3344 23.0316 16.3303 23.0965 16.327 23.1614C16.3073 23.6663 16.5395 23.9695 16.967 23.9969C17.3854 24.0242 17.6931 23.7374 17.7193 23.2481C17.8424 20.9933 18.8828 19.2302 20.8207 17.939C21.217 17.6749 21.3113 17.2849 21.0783 16.9636ZM21.0783 16.9636C20.842 16.637 20.4302 16.5783 20.0347 16.8386C17.7841 18.3228 16.5731 20.3783 16.3377 22.9668C16.3344 23.0316 16.3303 23.0965 16.327 23.1614C16.3073 23.6663 16.5395 23.9695 16.967 23.9969C17.3854 24.0242 17.6931 23.7374 17.7193 23.2481C17.8424 20.9933 18.8828 19.2302 20.8207 17.939C21.217 17.6749 21.3113 17.2849 21.0783 16.9636ZM21.0783 16.9636C20.842 16.637 20.4302 16.5783 20.0347 16.8386C17.7841 18.3228 16.5731 20.3783 16.3377 22.9668C16.3344 23.0316 16.3303 23.0965 16.327 23.1614C16.3073 23.6663 16.5395 23.9695 16.967 23.9969C17.3854 24.0242 17.6931 23.7374 17.7193 23.2481C17.8424 20.9933 18.8828 19.2302 20.8207 17.939C21.217 17.6749 21.3113 17.2849 21.0783 16.9636ZM29.425 25.0199C29.5087 24.7026 29.6728 24.662 29.9706 24.6627C32.5395 24.6737 35.1092 24.6737 37.6789 24.6635C37.9661 24.662 38.0916 24.7261 38.1835 25.0105C38.7348 26.719 40.6244 27.6803 42.4442 27.2059C44.2369 26.7386 45.3314 24.9894 44.9097 23.2645C44.5429 21.7616 43.2294 20.7315 41.5958 20.6651C40.0722 20.6026 38.6421 21.5842 38.1671 23.0254C38.1064 23.2091 38.067 23.3388 37.8011 23.338C35.1363 23.3263 32.4706 23.3294 29.8057 23.3341C29.6096 23.3349 29.5193 23.2817 29.466 23.0903C29.3085 22.526 28.9975 22.0383 28.5495 21.6405C28.4018 21.51 28.3838 21.4154 28.4814 21.2466C29.1936 20.0195 29.8976 18.7886 30.595 17.5537C30.6852 17.3951 30.7845 17.3318 30.9748 17.3357C31.5762 17.3466 32.1785 17.3513 32.779 17.3349C33.0613 17.3263 33.1909 17.3857 33.2861 17.678C33.8539 19.4201 35.7754 20.3704 37.6256 19.8562C39.4183 19.3583 40.4742 17.5279 39.977 15.7819C39.5709 14.3579 38.2385 13.3748 36.6591 13.3341C35.1363 13.295 33.7177 14.2665 33.2705 15.6889C33.1926 15.9382 33.0966 16.0211 32.8307 16.0109C32.3393 15.9914 31.8462 15.9922 31.3547 16.0102C31.0897 16.0203 31.006 15.9523 31.0093 15.6882C31.0249 14.4119 31.02 13.1364 31.0118 11.8601C31.0109 11.6749 31.07 11.5451 31.2062 11.417C31.8692 10.7964 32.5296 10.1735 33.177 9.53888C33.346 9.37319 33.5191 9.31926 33.7538 9.32239C34.5874 9.33333 35.4218 9.33958 36.2546 9.31926C36.5565 9.31223 36.6902 9.37553 36.787 9.67878C37.3335 11.3857 39.232 12.3509 41.0494 11.8789C42.8298 11.4162 43.9301 9.65142 43.5116 7.92888C43.1539 6.45877 41.8387 5.40367 40.2773 5.3349C38.6766 5.26456 37.2457 6.21649 36.7739 7.69285C36.6943 7.94216 36.5844 8.00469 36.3251 8C35.3824 7.98437 34.4389 7.99453 33.4961 7.99374C33.1442 7.99296 32.7512 8.02735 32.5551 8.29464C32.025 9.01524 31.3941 8.93239 30.6934 8.61586C30.6696 8.60492 30.6409 8.60179 30.6138 8.59789C30.3792 8.56272 30.2897 8.45408 30.2955 8.20867C30.3152 7.36303 30.2701 6.51504 30.3127 5.67096C30.3529 4.85268 30.0338 4.29465 29.2264 4H22.9933C22.1573 4.19304 21.8233 4.59945 21.8192 5.44197C21.8151 6.26182 21.8192 7.08167 21.8176 7.90152C21.8168 8.40953 21.8168 8.41188 21.3212 8.55334C20.1922 8.87612 19.1059 9.29738 18.0672 9.82962C17.5979 10.0696 17.5954 10.0735 17.227 9.72567C16.5961 9.13013 15.9808 8.51973 15.3383 7.93591C14.8313 7.47479 14.1774 7.35287 13.6416 7.60453C13.3208 7.75537 13.0484 7.97577 12.7957 8.21571C12.1672 8.81281 11.5387 9.4107 10.9119 10.0102C10.4007 10.4986 9.87072 10.9707 9.38172 11.4787C8.52925 12.3626 8.5514 13.0793 9.43423 13.9257C10.0118 14.4799 10.5886 15.0356 11.1761 15.5803C11.4034 15.7913 11.46 15.975 11.2893 16.261C10.6781 17.2825 10.2153 18.3689 9.8822 19.5006C9.79195 19.8062 9.64755 19.9234 9.31362 19.9171C8.41192 19.9007 7.51023 19.9078 6.60771 19.9125C5.63053 19.9187 5.01518 20.49 5.00861 21.4224C4.99713 23.1411 4.99713 24.8589 5.00861 26.5768C5.01518 27.51 5.63053 28.0813 6.60771 28.0875C7.52335 28.093 8.439 28.0953 9.35464 28.0844C9.65083 28.0813 9.78949 28.1876 9.8699 28.4619C10.1989 29.5819 10.6625 30.651 11.2425 31.6741C11.487 32.1063 11.4895 32.1125 11.1145 32.472C10.4992 33.0629 9.87646 33.6483 9.26193 34.2415C8.82134 34.6667 8.66381 35.1731 8.84349 35.7452C8.95507 36.1008 9.22419 36.3743 9.4933 36.6354C10.0381 37.1653 10.5919 37.6874 11.1433 38.211C11.743 38.7808 12.3264 39.3677 12.9458 39.9171C13.8853 40.7495 14.6434 40.7292 15.5451 39.8749C16.1366 39.3153 16.7274 38.755 17.3124 38.1899C17.5167 37.9922 17.7021 37.9672 17.963 38.1078C19.0255 38.6815 20.1528 39.1114 21.3212 39.4466C21.8159 39.5881 21.8168 39.5904 21.8176 40.0985C21.8192 40.9183 21.8151 41.7382 21.8192 42.558C21.8233 43.4005 22.1573 43.8069 22.9933 44H29.2264C30.0305 43.7038 30.3611 43.1481 30.3119 42.3298C30.2701 41.642 30.3029 40.9504 30.3029 40.2602C30.3029 39.5099 30.3037 39.5099 31.0462 39.288C31.1767 39.2489 31.3112 39.2153 31.431 39.1559C31.7059 39.0207 31.9102 39.0785 32.0981 39.3091C32.546 39.8562 33.1392 40.0516 33.8654 40.0148C34.6702 39.975 35.4784 40.0187 36.2841 39.9992C36.5729 39.9929 36.6943 40.068 36.7838 40.3446C37.3351 42.0406 39.2165 43.0129 41.0043 42.5502C42.8347 42.0774 43.935 40.3454 43.5124 38.6002C43.1514 37.1074 41.8403 36.0711 40.2396 36.0117C38.6421 35.9531 37.2449 36.8949 36.7674 38.3564C36.7116 38.5268 36.7017 38.6878 36.4187 38.6815C35.4899 38.6604 34.5603 38.6698 33.6315 38.6768C33.465 38.6784 33.3493 38.6229 33.2377 38.515C32.5542 37.8585 31.8683 37.2044 31.18 36.5533C31.0799 36.458 31.0126 36.3657 31.0126 36.218C31.0183 34.8902 31.0191 33.5623 31.0126 32.2345C31.0118 32.0445 31.0774 31.9875 31.2718 31.9914C31.7912 32.0015 32.3114 32.0086 32.8299 31.989C33.0958 31.9797 33.1909 32.0609 33.2705 32.311C33.7997 33.9726 35.613 34.9746 37.3515 34.5893C39.0228 34.218 40.2018 32.7737 40.1067 31.2137C40.0016 29.5021 38.7488 28.2352 36.9429 28.0141C35.3488 27.8187 33.7562 28.8386 33.2582 30.3947C33.2434 30.4416 33.2278 30.4814 33.2098 30.515C33.1638 30.6033 33.1015 30.6487 32.9916 30.6612H32.9907C32.9645 30.6643 32.9358 30.6659 32.9021 30.6651C32.2597 30.6518 31.6173 30.6534 30.9748 30.6643C30.7845 30.6674 30.6852 30.6049 30.5958 30.4463C29.8976 29.2114 29.1936 27.9804 28.4814 26.7534C28.3838 26.5846 28.401 26.4892 28.5487 26.3587C28.9663 25.9906 29.2847 25.5443 29.425 25.0199ZM29.617 31.6319C29.6145 32.4001 29.6071 33.1676 29.6219 33.9359C29.626 34.1719 29.4479 34.1743 29.306 34.2149C27.8628 34.6291 26.381 34.7995 24.8927 34.6002C20.1939 33.9703 16.9506 31.5404 15.4409 27.2434C13.2412 20.9808 17.6783 14.3306 24.5497 13.4388C26.1431 13.2317 27.7061 13.3497 29.2519 13.7624C29.5349 13.8382 29.649 13.9547 29.6235 14.2431C29.5932 14.5783 29.6161 14.9191 29.6161 15.4162C29.7966 16.1219 29.4512 16.8464 29.0032 17.5709C28.4084 18.5322 27.8726 19.5264 27.3213 20.5111C27.1999 20.7284 27.0989 20.8105 26.7954 20.7534C25.3997 20.49 24.2175 20.8996 23.3502 21.9703C22.4723 23.0535 22.3542 24.2642 22.9941 25.4889C23.6284 26.7026 24.7179 27.2896 26.13 27.3325C26.3589 27.3396 26.6001 27.313 26.8175 27.2466C27.062 27.1708 27.172 27.2286 27.2909 27.4412C28.0097 28.7229 28.7464 29.9961 29.4767 31.2724C29.5415 31.3857 29.6178 31.4928 29.617 31.6319ZM28.2115 23.9945C28.2156 25.0957 27.2466 26.0141 26.0939 26.0023C24.9477 25.9906 24.0123 25.0942 24.0082 24.0039C24.0041 22.9019 24.9706 21.9851 26.125 21.9976C27.2721 22.0094 28.2074 22.9042 28.2115 23.9945ZM41.5187 21.9969C42.6674 22.0055 43.5945 22.8949 43.5969 23.9922C43.6002 25.1051 42.6468 26.0156 41.4924 26.0031C40.3471 25.9914 39.4084 25.0942 39.4043 24.0062C39.4002 22.905 40.3643 21.9883 41.5187 21.9969ZM38.7094 16.6628C38.7127 17.7616 37.7421 18.6831 36.5926 18.6713C35.4505 18.6596 34.5102 17.7593 34.5061 16.6729C34.5012 15.5686 35.4595 14.6635 36.6229 14.6729C37.7765 14.6815 38.7061 15.5678 38.7094 16.6628ZM40.1337 6.66354C41.2832 6.67839 42.2005 7.57092 42.198 8.67213C42.1948 9.77804 41.2808 10.6518 40.1206 10.6581C38.9465 10.6635 38.003 9.771 38.0063 8.65885C38.0104 7.55764 38.9793 6.64869 40.1337 6.66354ZM28.9064 39.0637C28.9015 40.1438 28.8958 41.2247 28.9114 42.3048C28.9146 42.5752 28.8769 42.6831 28.5446 42.6784C26.9193 42.6581 25.2923 42.662 23.6661 42.676C23.3781 42.6784 23.3034 42.6096 23.3084 42.3353C23.3256 41.2677 23.3174 40.2001 23.3149 39.1325C23.3133 38.6026 23.1615 38.4064 22.62 38.2821C20.9643 37.9023 19.4062 37.3013 17.9589 36.4423C17.5044 36.1727 17.2582 36.2094 16.871 36.576C16.0661 37.3372 15.2579 38.0953 14.467 38.8706C14.2758 39.0582 14.179 39.0402 13.9969 38.8644C12.8367 37.7421 11.6675 36.6284 10.4918 35.5209C10.3212 35.3599 10.2957 35.2778 10.4853 35.1028C11.3 34.3509 12.0958 33.5811 12.8958 32.8151C13.2954 32.4322 13.3331 32.1969 13.0386 31.7468C12.1434 30.379 11.5174 28.9066 11.1203 27.3419C10.9841 26.8042 10.7872 26.6635 10.2014 26.6627C9.08061 26.6612 7.95984 26.6534 6.8399 26.669C6.56751 26.6721 6.50351 26.5971 6.50515 26.3454C6.51746 24.7839 6.52074 23.2216 6.50351 21.6592C6.50023 21.3661 6.60853 21.3286 6.87518 21.3318C7.96887 21.3458 9.06256 21.338 10.1554 21.3372C10.797 21.3372 10.9816 21.2075 11.1301 20.6245C11.5248 19.0731 12.1483 17.6139 13.0361 16.2571C13.3331 15.803 13.2962 15.5686 12.8999 15.188C12.0999 14.422 11.3033 13.653 10.491 12.8988C10.3113 12.7323 10.3056 12.6487 10.4869 12.4783C11.6758 11.3646 12.8564 10.2431 14.0256 9.11137C14.2143 8.92848 14.3013 8.96678 14.4645 9.12544C15.2481 9.88823 16.0439 10.6401 16.8373 11.3935C17.2623 11.7976 17.4953 11.832 17.9901 11.5404C19.4046 10.7081 20.9175 10.1055 22.5379 9.74443C23.1771 9.6014 23.3149 9.42008 23.3149 8.79328C23.3158 7.73896 23.3223 6.68386 23.31 5.62954C23.3067 5.39664 23.3584 5.32239 23.621 5.32395C25.2742 5.33724 26.9283 5.33802 28.5815 5.32395C28.8629 5.32161 28.9138 5.40836 28.9105 5.65142C28.8974 6.71903 28.904 7.78663 28.9056 8.85424C28.9064 9.40523 29.0549 9.57874 29.6268 9.72254C29.9427 9.80226 30.2569 9.88902 30.5712 9.97499C30.5941 9.98124 30.6114 10.0078 30.645 10.0383C30.6171 10.075 30.595 10.1227 30.5572 10.1508C29.8492 10.6776 29.4775 11.3388 29.6137 12.218C29.6613 12.5244 29.4603 12.4314 29.2839 12.3884C26.9939 11.8304 24.6966 11.8155 22.4559 12.5275C17.4609 14.1149 14.4079 17.3998 13.6605 22.3712C12.7022 28.7425 17.0244 34.4377 23.6448 35.7663C25.531 36.1446 27.4181 36.0703 29.2871 35.6123C29.4266 35.5787 29.6539 35.4459 29.6104 35.746C29.4742 36.687 29.8664 37.3904 30.7722 37.9758C30.2807 38.1031 29.9164 38.2001 29.5505 38.2923C29.0886 38.4087 28.9089 38.6104 28.9064 39.0637ZM40.1124 37.3419C41.2898 37.3443 42.2087 38.2329 42.198 39.3591C42.1874 40.4525 41.2447 41.3419 40.1001 41.3372C38.9441 41.3333 37.994 40.4126 38.0063 39.3091C38.0194 38.2141 38.9564 37.3396 40.1124 37.3419ZM36.6049 29.3286C37.7577 29.3263 38.7225 30.2516 38.7094 31.3482C38.6955 32.4455 37.7634 33.3247 36.6115 33.3271C35.4456 33.3286 34.4906 32.4166 34.5053 31.3161C34.5201 30.2259 35.4653 29.331 36.6049 29.3286ZM20.0347 16.8386C17.7841 18.3228 16.5731 20.3783 16.3377 22.9668C16.3344 23.0316 16.3303 23.0965 16.327 23.1614C16.3073 23.6663 16.5395 23.9695 16.967 23.9969C17.3854 24.0242 17.6931 23.7374 17.7193 23.2481C17.8424 20.9933 18.8828 19.2302 20.8207 17.939C21.217 17.6749 21.3113 17.2849 21.0783 16.9636C20.842 16.637 20.4302 16.5783 20.0347 16.8386ZM21.0783 16.9636C20.842 16.637 20.4302 16.5783 20.0347 16.8386C17.7841 18.3228 16.5731 20.3783 16.3377 22.9668C16.3344 23.0316 16.3303 23.0965 16.327 23.1614C16.3073 23.6663 16.5395 23.9695 16.967 23.9969C17.3854 24.0242 17.6931 23.7374 17.7193 23.2481C17.8424 20.9933 18.8828 19.2302 20.8207 17.939C21.217 17.6749 21.3113 17.2849 21.0783 16.9636ZM21.0783 16.9636C20.842 16.637 20.4302 16.5783 20.0347 16.8386C17.7841 18.3228 16.5731 20.3783 16.3377 22.9668C16.3344 23.0316 16.3303 23.0965 16.327 23.1614C16.3073 23.6663 16.5395 23.9695 16.967 23.9969C17.3854 24.0242 17.6931 23.7374 17.7193 23.2481C17.8424 20.9933 18.8828 19.2302 20.8207 17.939C21.217 17.6749 21.3113 17.2849 21.0783 16.9636ZM21.0783 16.9636C20.842 16.637 20.4302 16.5783 20.0347 16.8386C17.7841 18.3228 16.5731 20.3783 16.3377 22.9668C16.3344 23.0316 16.3303 23.0965 16.327 23.1614C16.3073 23.6663 16.5395 23.9695 16.967 23.9969C17.3854 24.0242 17.6931 23.7374 17.7193 23.2481C17.8424 20.9933 18.8828 19.2302 20.8207 17.939C21.217 17.6749 21.3113 17.2849 21.0783 16.9636ZM21.0783 16.9636C20.842 16.637 20.4302 16.5783 20.0347 16.8386C17.7841 18.3228 16.5731 20.3783 16.3377 22.9668C16.3344 23.0316 16.3303 23.0965 16.327 23.1614C16.3073 23.6663 16.5395 23.9695 16.967 23.9969C17.3854 24.0242 17.6931 23.7374 17.7193 23.2481C17.8424 20.9933 18.8828 19.2302 20.8207 17.939C21.217 17.6749 21.3113 17.2849 21.0783 16.9636ZM21.0783 16.9636C20.842 16.637 20.4302 16.5783 20.0347 16.8386C17.7841 18.3228 16.5731 20.3783 16.3377 22.9668C16.3344 23.0316 16.3303 23.0965 16.327 23.1614C16.3073 23.6663 16.5395 23.9695 16.967 23.9969C17.3854 24.0242 17.6931 23.7374 17.7193 23.2481C17.8424 20.9933 18.8828 19.2302 20.8207 17.939C21.217 17.6749 21.3113 17.2849 21.0783 16.9636ZM21.0783 16.9636C20.842 16.637 20.4302 16.5783 20.0347 16.8386C17.7841 18.3228 16.5731 20.3783 16.3377 22.9668C16.3344 23.0316 16.3303 23.0965 16.327 23.1614C16.3073 23.6663 16.5395 23.9695 16.967 23.9969C17.3854 24.0242 17.6931 23.7374 17.7193 23.2481C17.8424 20.9933 18.8828 19.2302 20.8207 17.939C21.217 17.6749 21.3113 17.2849 21.0783 16.9636Z" fill="#6F768E"/>
<path d="M22.9933 44C22.1573 43.8069 21.8233 43.4005 21.8192 42.558C21.8151 41.7382 21.8192 40.9183 21.8176 40.0985C21.8168 39.5904 21.8159 39.5881 21.3212 39.4466C20.1528 39.1114 19.0255 38.6815 17.963 38.1078C17.7021 37.9672 17.5167 37.9922 17.3124 38.1899C16.7274 38.755 16.1366 39.3153 15.5451 39.8749C14.6434 40.7292 13.8853 40.7495 12.9458 39.9171C12.3264 39.3677 11.743 38.7808 11.1433 38.211C10.5919 37.6874 10.0381 37.1653 9.4933 36.6354C9.22419 36.3743 8.95507 36.1008 8.84349 35.7452C8.66381 35.1731 8.82134 34.6667 9.26193 34.2415C9.87646 33.6483 10.4992 33.0629 11.1146 32.472C11.4895 32.1125 11.487 32.1063 11.2425 31.6741C10.6625 30.651 10.1989 29.5819 9.8699 28.4619C9.78949 28.1876 9.65083 28.0813 9.35464 28.0844C8.439 28.0953 7.52335 28.093 6.60771 28.0875C5.63053 28.0813 5.01518 27.51 5.00861 26.5768C4.99713 24.8589 4.99713 23.1411 5.00861 21.4224C5.01518 20.49 5.63053 19.9187 6.60771 19.9125C7.51023 19.9078 8.41192 19.9007 9.31362 19.9171C9.64755 19.9234 9.79195 19.8062 9.88221 19.5006C10.2153 18.3689 10.6781 17.2825 11.2893 16.261C11.46 15.975 11.4034 15.7913 11.1761 15.5803C10.5886 15.0356 10.0118 14.4799 9.43423 13.9257C8.5514 13.0793 8.52925 12.3626 9.38172 11.4787C9.87072 10.9707 10.4007 10.4986 10.9119 10.0102C11.5387 9.4107 12.1672 8.81281 12.7957 8.21571C13.0484 7.97577 13.3208 7.75537 13.6416 7.60453C14.1774 7.35287 14.8313 7.47479 15.3383 7.93591C15.9808 8.51973 16.5961 9.13013 17.2271 9.72567C17.5954 10.0735 17.5979 10.0696 18.0672 9.82962C19.1059 9.29738 20.1922 8.87612 21.3212 8.55334C21.8168 8.41188 21.8168 8.40953 21.8176 7.90152C21.8192 7.08167 21.8151 6.26182 21.8192 5.44197C21.8233 4.59945 22.1573 4.19304 22.9933 4C22.1876 4.29543 21.866 4.85111 21.907 5.67018C21.9513 6.52755 21.9078 7.38882 21.9234 8.24775C21.9275 8.46033 21.8438 8.54396 21.6469 8.59163C20.3046 8.91754 19.0395 9.42555 17.8416 10.0836C17.6365 10.1962 17.5208 10.1719 17.3583 10.0125C16.6921 9.35834 16.0111 8.71825 15.3326 8.07659C14.6229 7.40523 13.8492 7.40055 13.1428 8.07034C11.8833 9.26455 10.6264 10.4603 9.37351 11.6608C8.68924 12.3165 8.69499 13.0598 9.38008 13.7194C10.0627 14.3759 10.7462 15.0324 11.4395 15.678C11.5921 15.8202 11.6208 15.9218 11.5092 16.1063C10.8175 17.2474 10.2842 18.4533 9.938 19.7296C9.88221 19.9367 9.79359 20.0164 9.55156 20.0125C8.56781 19.9961 7.58325 20.0016 6.59951 20.007C5.68714 20.0125 5.11774 20.5533 5.1161 21.4209C5.11117 23.1395 5.11117 24.8581 5.1161 26.5768C5.11774 27.4451 5.68632 27.9875 6.59786 27.993C7.58161 27.9984 8.56617 28.0039 9.54992 27.9875C9.79031 27.9836 9.88138 28.0609 9.938 28.2688C10.2842 29.5459 10.8175 30.7511 11.5084 31.8921C11.6191 32.0758 11.5937 32.1782 11.4411 32.3212C10.747 32.9668 10.0635 33.6233 9.3809 34.2798C8.69581 34.9378 8.68924 35.6827 9.37351 36.3376C10.6354 37.5475 11.9006 38.7542 13.1715 39.9554C13.8434 40.5901 14.6294 40.5854 15.303 39.9515C15.9931 39.3013 16.6823 38.651 17.3575 37.9875C17.5208 37.8273 17.6373 37.8038 17.8416 37.9164C19.0395 38.5744 20.3055 39.0809 21.6469 39.4083C21.8438 39.456 21.9275 39.5396 21.9234 39.7522C21.9078 40.6112 21.9513 41.4724 21.907 42.3298C21.8652 43.1496 22.1909 43.7038 22.9933 44Z" fill="#6F768E"/>
<path d="M20.8207 17.939C18.8827 19.2301 17.8424 20.9933 17.7193 23.2481C17.693 23.7373 17.3854 24.0242 16.9669 23.9968C16.5395 23.9694 16.3073 23.6662 16.327 23.1613C16.3302 23.0965 16.3343 23.0316 16.3376 22.9667C16.5731 20.3782 17.7841 18.3227 20.0347 16.8385C20.4301 16.5783 20.842 16.6369 21.0783 16.9636C21.3113 17.2848 21.217 17.6748 20.8207 17.939Z" fill="#6F768E"/>
<path d="M20.8207 17.939C18.8827 19.2301 17.8424 20.9933 17.7193 23.2481C17.693 23.7373 17.3854 24.0242 16.9669 23.9968C16.5395 23.9694 16.3073 23.6662 16.327 23.1613C16.3302 23.0965 16.3343 23.0316 16.3376 22.9667C16.5731 20.3782 17.7841 18.3227 20.0347 16.8385C20.4301 16.5783 20.842 16.6369 21.0783 16.9636C21.3113 17.2848 21.217 17.6748 20.8207 17.939Z" fill="#6F768E"/>
</svg>
