<svg xmlns="http://www.w3.org/2000/svg" width="168" height="46" viewBox="0 0 168 46" fill="none"><path d="M48.4865 23.7655C48.5104 21.9065 49.5049 20.1475 51.0825 19.1738C50.0872 17.7469 48.4202 16.8422 46.6859 16.7877C44.836 16.5928 43.0427 17.8989 42.1001 17.8989C41.1392 17.8989 39.6879 16.807 38.125 16.8393C36.0879 16.9054 34.1888 18.0681 33.1977 19.856C31.0673 23.559 32.6564 29.0011 34.6972 31.9943C35.7183 33.46 36.9116 35.0972 38.473 35.0391C40.001 34.9755 40.5717 34.061 42.416 34.061C44.2433 34.061 44.7787 35.0391 46.3718 35.0022C48.0114 34.9755 49.0444 33.53 50.0296 32.0504C50.7633 31.0061 51.3278 29.8519 51.7023 28.6305C49.7755 27.8124 48.4888 25.8657 48.4865 23.7655Z" fill="#000927"></path><path d="M45.4774 14.8192C46.3713 13.7418 46.8118 12.3571 46.7051 10.959C45.3393 11.103 44.0777 11.7583 43.1717 12.7943C42.2857 13.8066 41.8246 15.167 41.9118 16.5116C43.2781 16.5258 44.6212 15.8882 45.4774 14.8192Z" fill="#000927"></path><path d="M107.857 20.9133V23.166H106.451V24.6433H107.857V29.6629C107.857 31.3769 108.63 32.0625 110.573 32.0625C110.914 32.0625 111.239 32.0217 111.524 31.9727V30.5117C111.28 30.5362 111.125 30.5525 110.857 30.5525C109.987 30.5525 109.605 30.1444 109.605 29.214V24.6433H111.524V23.166H109.605V20.9133H107.857Z" fill="#000927"></path><path d="M116.474 32.1849C119.059 32.1849 120.645 30.4464 120.645 27.5653C120.645 24.7004 119.051 22.9538 116.474 22.9538C113.888 22.9538 112.295 24.7004 112.295 27.5653C112.295 30.4464 113.88 32.1849 116.474 32.1849ZM116.474 30.626C114.954 30.626 114.1 29.5078 114.1 27.5653C114.1 25.6391 114.954 24.5127 116.474 24.5127C117.986 24.5127 118.848 25.6391 118.848 27.5653C118.848 29.4996 117.986 30.626 116.474 30.626Z" fill="#000927"></path><path d="M122.001 32.0135H123.749V26.7654C123.749 25.5166 124.684 24.676 126.009 24.676C126.318 24.676 126.839 24.7331 126.985 24.7821V23.0517C126.798 23.0028 126.465 22.9783 126.204 22.9783C125.05 22.9783 124.066 23.6149 123.814 24.4882H123.684V23.1252H122.001V32.0135Z" fill="#000927"></path><path d="M131.325 24.4474C132.618 24.4474 133.463 25.3534 133.504 26.7491H129.032C129.13 25.3616 130.032 24.4474 131.325 24.4474ZM133.496 29.6139C133.171 30.3077 132.447 30.6913 131.39 30.6913C129.992 30.6913 129.089 29.7037 129.032 28.1448V28.0468H135.284V27.4347C135.284 24.6433 133.797 22.9538 131.333 22.9538C128.837 22.9538 127.252 24.7576 127.252 27.5979C127.252 30.4383 128.805 32.1849 131.341 32.1849C133.366 32.1849 134.78 31.2055 135.179 29.6139H133.496Z" fill="#000927"></path><path d="M96.3941 28.7312C96.5289 30.9138 98.3407 32.3096 101.037 32.3096C103.919 32.3096 105.722 30.8461 105.722 28.5113C105.722 26.6755 104.694 25.6604 102.2 25.0767L100.86 24.7467C99.276 24.3745 98.6356 23.8754 98.6356 23.0041C98.6356 21.9043 99.63 21.1853 101.121 21.1853C102.537 21.1853 103.515 21.8874 103.692 23.0125H105.529C105.419 20.9568 103.616 19.5103 101.147 19.5103C98.4924 19.5103 96.7228 20.9568 96.7228 23.131C96.7228 24.9244 97.7255 25.9903 99.9249 26.5063L101.492 26.887C103.102 27.2677 103.81 27.826 103.81 28.7566C103.81 29.8394 102.697 30.6261 101.18 30.6261C99.5541 30.6261 98.4249 29.8902 98.2648 28.7312H96.3941Z" fill="#000927"></path><path d="M78.2867 22.9783C77.0835 22.9783 76.0428 23.5823 75.5062 24.5943H75.3761V23.1252H73.6932V34.9681H75.4412V30.6668H75.5794C76.0428 31.6054 77.0428 32.1604 78.303 32.1604C80.5388 32.1604 81.9616 30.3893 81.9616 27.5653C81.9616 24.7413 80.5388 22.9783 78.2867 22.9783ZM77.7908 30.5852C76.3274 30.5852 75.4087 29.4262 75.4087 27.5734C75.4087 25.7125 76.3274 24.5535 77.7989 24.5535C79.2786 24.5535 80.1648 25.688 80.1648 27.5653C80.1648 29.4507 79.2786 30.5852 77.7908 30.5852Z" fill="#000927"></path><path d="M88.0781 22.9783C86.8748 22.9783 85.8341 23.5823 85.2976 24.5943H85.1675V23.1252H83.4845V34.9681H85.2325V30.6668H85.3707C85.8341 31.6054 86.8342 32.1604 88.0943 32.1604C90.3301 32.1604 91.7529 30.3893 91.7529 27.5653C91.7529 24.7413 90.3301 22.9783 88.0781 22.9783ZM87.5821 30.5852C86.1187 30.5852 85.2 29.4262 85.2 27.5734C85.2 25.7125 86.1187 24.5535 87.5903 24.5535C89.07 24.5535 89.9562 25.688 89.9562 27.5653C89.9562 29.4507 89.07 30.5852 87.5821 30.5852Z" fill="#000927"></path><path d="M70.557 32.0135H72.5625L68.1722 19.8063H66.1414L61.7511 32.0135H63.6892L64.81 28.7735H69.4447L70.557 32.0135ZM67.0599 22.0228H67.2032L68.9643 27.1831H65.2903L67.0599 22.0228Z" fill="#000927"></path><path d="M61.7023 11.1964V16.0216H63.4376C64.8699 16.0216 65.6993 15.1355 65.6993 13.5939C65.6993 12.0758 64.8633 11.1964 63.4376 11.1964H61.7023ZM62.4484 11.8785H63.3544C64.3503 11.8785 64.9399 12.5139 64.9399 13.604C64.9399 14.7108 64.3603 15.3394 63.3544 15.3394H62.4484V11.8785Z" fill="#000927"></path><path d="M68.2394 16.0918C69.2986 16.0918 69.9481 15.3796 69.9481 14.1992C69.9481 13.0255 69.2953 12.3099 68.2394 12.3099C67.1802 12.3099 66.5273 13.0255 66.5273 14.1992C66.5273 15.3796 67.1769 16.0918 68.2394 16.0918ZM68.2394 15.4531C67.6165 15.4531 67.2668 14.995 67.2668 14.1992C67.2668 13.41 67.6165 12.9486 68.2394 12.9486C68.8589 12.9486 69.212 13.41 69.212 14.1992C69.212 14.9917 68.8589 15.4531 68.2394 15.4531Z" fill="#000927"></path><path d="M75.4794 12.3801H74.7632L74.117 15.1589H74.0604L73.3143 12.3801H72.6281L71.882 15.1589H71.8287L71.1792 12.3801H70.4531L71.4524 16.0216H72.1885L72.9346 13.3398H72.9912L73.7406 16.0216H74.4834L75.4794 12.3801Z" fill="#000927"></path><path d="M76.3041 16.0216H77.0202V13.8915C77.0202 13.3231 77.3566 12.9686 77.8862 12.9686C78.4158 12.9686 78.669 13.2596 78.669 13.8447V16.0216H79.3851V13.6642C79.3851 12.7981 78.9388 12.3099 78.1294 12.3099C77.5831 12.3099 77.2234 12.554 77.0469 12.9586H76.9936V12.3801H76.3041V16.0216Z" fill="#000927"></path><path d="M80.5129 16.0216H81.2291V10.959H80.5129V16.0216Z" fill="#000927"></path><path d="M83.9224 16.0918C84.9816 16.0918 85.6311 15.3796 85.6311 14.1992C85.6311 13.0255 84.9783 12.3099 83.9224 12.3099C82.8632 12.3099 82.2104 13.0255 82.2104 14.1992C82.2104 15.3796 82.8599 16.0918 83.9224 16.0918ZM83.9224 15.4531C83.2995 15.4531 82.9498 14.995 82.9498 14.1992C82.9498 13.41 83.2995 12.9486 83.9224 12.9486C84.5419 12.9486 84.895 13.41 84.895 14.1992C84.895 14.9917 84.5419 15.4531 83.9224 15.4531Z" fill="#000927"></path><path d="M87.7649 15.4765C87.3752 15.4765 87.0921 15.2859 87.0921 14.9582C87.0921 14.6372 87.3185 14.4667 87.8182 14.4333L88.7042 14.3764V14.6807C88.7042 15.1321 88.3045 15.4765 87.7649 15.4765ZM87.5817 16.0818C88.058 16.0818 88.4544 15.8745 88.6709 15.51H88.7275V16.0216H89.417V13.5338C89.417 12.7647 88.904 12.3099 87.9947 12.3099C87.172 12.3099 86.5858 12.7112 86.5125 13.3365H87.2053C87.2852 13.079 87.5617 12.9319 87.9614 12.9319C88.451 12.9319 88.7042 13.1492 88.7042 13.5338V13.8481L87.7216 13.9049C86.8589 13.9584 86.3726 14.3363 86.3726 14.9917C86.3726 15.6571 86.8822 16.0818 87.5817 16.0818Z" fill="#000927"></path><path d="M91.8472 16.0818C92.3468 16.0818 92.7698 15.8444 92.9863 15.4464H93.043V16.0216H93.7291V10.959H93.013V12.9586H92.9597C92.7632 12.5573 92.3435 12.3199 91.8472 12.3199C90.9312 12.3199 90.3416 13.0489 90.3416 14.1992C90.3416 15.3528 90.9245 16.0818 91.8472 16.0818ZM92.0504 12.9653C92.6499 12.9653 93.0263 13.4435 93.0263 14.2025C93.0263 14.9649 92.6532 15.4364 92.0504 15.4364C91.4441 15.4364 91.0811 14.9716 91.0811 14.1992C91.0811 13.4334 91.4475 12.9653 92.0504 12.9653Z" fill="#000927"></path><path d="M98.373 16.0918C99.4322 16.0918 100.082 15.3796 100.082 14.1992C100.082 13.0255 99.4289 12.3099 98.373 12.3099C97.3138 12.3099 96.6609 13.0255 96.6609 14.1992C96.6609 15.3796 97.3105 16.0918 98.373 16.0918ZM98.373 15.4531C97.7501 15.4531 97.4004 14.995 97.4004 14.1992C97.4004 13.41 97.7501 12.9486 98.373 12.9486C98.9925 12.9486 99.3456 13.41 99.3456 14.1992C99.3456 14.9917 98.9925 15.4531 98.373 15.4531Z" fill="#000927"></path><path d="M101.03 16.0216H101.746V13.8915C101.746 13.3231 102.082 12.9686 102.612 12.9686C103.141 12.9686 103.395 13.2596 103.395 13.8447V16.0216H104.111V13.6642C104.111 12.7981 103.664 12.3099 102.855 12.3099C102.309 12.3099 101.949 12.554 101.772 12.9586H101.719V12.3801H101.03V16.0216Z" fill="#000927"></path><path d="M107.409 11.4739V12.3968H106.833V13.0021H107.409V15.0586C107.409 15.7608 107.725 16.0416 108.521 16.0416C108.661 16.0416 108.795 16.0249 108.911 16.0049V15.4063C108.811 15.4163 108.748 15.423 108.638 15.423C108.282 15.423 108.125 15.2558 108.125 14.8746V13.0021H108.911V12.3968H108.125V11.4739H107.409Z" fill="#000927"></path><path d="M109.872 16.0216H110.589V13.8949C110.589 13.3432 110.915 12.972 111.501 12.972C112.008 12.972 112.277 13.2662 112.277 13.8481V16.0216H112.993V13.6709C112.993 12.8048 112.517 12.3132 111.744 12.3132C111.198 12.3132 110.815 12.5573 110.639 12.9653H110.582V10.959H109.872V16.0216Z" fill="#000927"></path><path d="M115.577 12.9218C116.106 12.9218 116.453 13.293 116.47 13.8648H114.638C114.678 13.2963 115.047 12.9218 115.577 12.9218ZM116.466 15.0385C116.333 15.3227 116.037 15.4799 115.604 15.4799C115.031 15.4799 114.661 15.0753 114.638 14.4366V14.3965H117.199V14.1457C117.199 13.0021 116.589 12.3099 115.58 12.3099C114.558 12.3099 113.908 13.0489 113.908 14.2126C113.908 15.3762 114.544 16.0918 115.584 16.0918C116.413 16.0918 116.992 15.6905 117.156 15.0385H116.466Z" fill="#000927"></path><rect x="0.686035" y="1.45898" width="166.098" height="43.0816" stroke="#000927"></rect></svg>