<svg width="50" height="50" viewBox="0 0 50 50" fill="none" xmlns="http://www.w3.org/2000/svg">
<path d="M45.4009 42.4164C42.6081 37.5235 36.7803 35.2935 31.4554 37.1841C28.5411 38.2188 26.3949 40.1479 24.9884 42.886C24.3841 44.062 24.9092 45.3059 26.1563 45.7471C26.2171 45.7691 26.2733 45.8049 26.3313 45.8333H44.2274C45.9149 45.3252 46.2124 43.8382 45.4009 42.4164ZM43.6131 44.5106C40.835 44.5124 38.057 44.5106 35.2789 44.5106V44.5216C32.5285 44.5216 29.7772 44.5216 27.0268 44.5207C26.1213 44.5207 25.8238 44.0556 26.2724 43.2741C28.2684 39.7911 31.2592 37.8574 35.3139 37.8592C39.3686 37.8611 42.3613 39.7883 44.3453 43.2842C44.7838 44.0556 44.4992 44.5097 43.6131 44.5106Z" fill="#6F768E"/>
<path d="M40.7907 28.7348C40.589 26.4773 38.8417 24.5207 36.5417 23.9795C36.3593 23.9364 36.1751 23.9006 35.9743 23.8584V19.2407C35.9743 18.9692 35.9881 18.6967 35.9669 18.427C35.9365 18.0482 35.6491 17.8079 35.2807 17.8235C34.9316 17.8391 34.6884 18.0821 34.6626 18.4537C34.6525 18.6023 34.6589 18.7518 34.6589 18.9013V23.8511C34.5235 23.8859 34.4333 23.9153 34.3402 23.9318C33.0304 24.1703 31.9426 24.7968 31.097 25.8159C30.9008 26.0517 30.7046 26.1315 30.4053 26.1305C22.2618 26.1232 14.1174 26.125 5.97395 26.125H5.51616C5.50695 25.9774 5.49405 25.8719 5.49405 25.7673C5.49313 20.7625 5.49221 15.7586 5.49405 10.7538C5.49405 10.1484 5.71972 9.92274 6.33502 9.91999C7.62825 9.91449 8.9224 9.91816 10.2156 9.91816H11.9445C11.9759 10.0658 12.0053 10.1814 12.0247 10.2988C12.3001 11.9784 13.7766 13.2131 15.4991 13.2021C17.2409 13.192 18.6557 11.9399 18.9366 10.1603C19.189 8.55872 18.1362 6.91399 16.5298 6.40214C14.9013 5.88203 13.0996 6.62504 12.359 8.16336C12.1886 8.51744 11.9943 8.61009 11.6231 8.6055C9.83981 8.58715 8.05564 8.58991 6.27146 8.6C5.01324 8.60733 4.18056 9.42557 4.17872 10.6557C4.17043 17.3006 4.16582 23.9465 4.16674 30.5923C4.16766 31.9306 4.99389 32.7296 6.34055 32.7305C9.94943 32.7315 13.5583 32.7305 17.1672 32.7305H17.6342V36.5098C17.4444 36.5098 17.2823 36.5098 17.1211 36.5107C16.6578 36.5126 16.1936 36.4988 15.7321 36.5245C15.3508 36.5447 15.1131 36.8006 15.0984 37.1437C15.0827 37.5005 15.3241 37.7702 15.7155 37.8261C15.8095 37.8399 15.9053 37.8372 16.0011 37.8372C17.9474 37.8427 19.8946 37.8482 21.8418 37.85C22.6459 37.8509 23.4491 37.8417 24.2523 37.8372C24.6079 37.8353 24.9045 37.7271 25.0177 37.3574C25.1559 36.9061 24.8409 36.5291 24.303 36.5153C23.7098 36.5006 23.1157 36.5117 22.5096 36.5117V32.7305H22.9674C25.5004 32.7305 28.0334 32.7351 30.5665 32.725C30.8612 32.7241 31.0593 32.803 31.2656 33.0268C32.8748 34.7743 35.4023 35.2935 37.5484 34.3395C39.7305 33.3699 41.0072 31.1629 40.7907 28.7348ZM15.4503 7.56161C16.6606 7.55335 17.6452 8.5156 17.6508 9.71268C17.6572 10.8997 16.6624 11.8922 15.4678 11.8922C14.2878 11.8922 13.3004 10.9208 13.2912 9.75121C13.282 8.54221 14.2399 7.57078 15.4503 7.56161ZM21.15 36.4841H19.0011V32.759H21.15V36.4841ZM29.7384 31.3793C21.9781 31.3803 14.2169 31.3803 6.4566 31.3803C5.6884 31.3794 5.49405 31.184 5.49405 30.4199V27.4652H30.1161C29.7062 28.7568 29.6997 30.0337 30.1907 31.3527C30.0166 31.3638 29.8775 31.3793 29.7384 31.3793ZM35.2973 33.4827C32.9798 33.4745 31.1302 31.6178 31.1385 29.3072C31.1458 27.0029 33.012 25.1582 35.3313 25.1628C37.6387 25.1683 39.5012 27.0378 39.4929 29.3411C39.4846 31.6463 37.6157 33.4919 35.2973 33.4827Z" fill="#6F768E"/>
<path d="M26.6491 10.0851C26.8222 9.61182 26.6877 9.25499 26.2972 9.11006C25.9113 8.96604 25.5953 9.15317 25.4083 9.64484C25.2296 10.1136 25.0565 10.5832 24.8833 11.0538C24.7157 11.5051 24.5508 11.9574 24.3896 12.3986C23.0282 12.1546 22.6183 12.2784 21.6511 13.2012C21.3472 13.492 21.0312 13.7727 20.7439 14.08C20.5504 14.2864 20.3413 14.3534 20.0622 14.3515C17.87 14.3414 15.6778 14.3368 13.4856 14.3497C11.5623 14.3607 10.0204 15.6 9.64549 17.4768C9.34429 18.9903 9.09375 20.5149 8.85795 22.0413C8.70321 23.0411 9.40417 23.8401 10.4229 23.8456C12.8058 23.8594 15.1887 23.8575 17.5716 23.8474C18.5166 23.8428 19.1476 23.2081 19.1725 22.2587C19.189 21.6487 19.1761 21.0377 19.1771 20.4277V18.7307C19.7509 18.7307 20.2787 18.7353 20.8065 18.7298C21.6843 18.7215 22.4691 18.45 23.1175 17.8547C23.7789 17.2484 24.4347 16.6356 25.0638 15.9972C25.7289 15.3229 25.856 14.5194 25.552 13.6287C25.4977 13.4682 25.4894 13.2563 25.5456 13.0985C25.9002 12.0895 26.2825 11.0896 26.6491 10.0851ZM24.0534 15.1496C23.4814 15.711 22.8974 16.2604 22.3162 16.8126C21.8814 17.2245 21.3555 17.4171 20.7595 17.4208C20.1065 17.4245 19.4525 17.4217 18.7994 17.4217C18.0432 17.4226 17.8516 17.6089 17.8507 18.351C17.8498 19.5985 17.8461 20.846 17.8534 22.0926C17.8553 22.3614 17.8028 22.5412 17.4813 22.5394C16.0656 22.5338 14.6498 22.5357 13.2341 22.5329C13.1954 22.5329 13.1577 22.5109 13.0738 22.4862C13.2028 21.7165 13.3317 20.946 13.4616 20.1755C13.515 19.8544 13.5749 19.5352 13.6219 19.2132C13.6808 18.8124 13.4635 18.484 13.1061 18.4161C12.7422 18.3464 12.4134 18.5583 12.337 18.9674C12.1417 20.0186 11.9704 21.0753 11.788 22.1293C11.765 22.2596 11.7327 22.388 11.7005 22.5375C11.2777 22.5375 10.8844 22.5412 10.4911 22.5357C10.2332 22.532 10.1245 22.4018 10.1705 22.1394C10.4247 20.6717 10.6495 19.1985 10.935 17.7373C11.1883 16.4466 12.2089 15.6651 13.5814 15.6596C15.8556 15.6495 18.1289 15.6486 20.4021 15.6642C20.8148 15.6669 21.1289 15.555 21.4153 15.2596C21.8695 14.7918 22.3484 14.3488 22.8256 13.9039C23.2566 13.5003 23.7817 13.4856 24.1289 13.8534C24.5001 14.246 24.4808 14.7304 24.0534 15.1496Z" fill="#6F768E"/>
<path d="M38.8564 14.557C38.8546 15.9155 38.0588 16.7117 36.7057 16.7136C33.5877 16.7172 30.4698 16.7145 27.3519 16.7145C27.257 16.7145 27.1603 16.7191 27.0663 16.7062C26.7071 16.6585 26.4998 16.4512 26.4823 16.0898C26.4648 15.7238 26.6675 15.5036 27.012 15.4211C27.1418 15.3899 27.2828 15.4046 27.4191 15.4046C30.4827 15.4036 33.5453 15.4046 36.6089 15.4036C37.3329 15.4036 37.5365 15.2046 37.5365 14.4946C37.5374 11.7959 37.5374 9.09811 37.5365 6.39941C37.5365 5.68759 37.3274 5.48028 36.6145 5.48028C31.8901 5.47936 27.1658 5.47936 22.4415 5.48028C21.7248 5.48028 21.5102 5.69034 21.5102 6.39483C21.5084 8.00836 21.5093 9.62189 21.5093 11.2345C21.5093 11.3565 21.5167 11.4803 21.501 11.6005C21.4577 11.9491 21.1694 12.2041 20.8387 12.1995C20.4998 12.194 20.2253 11.9399 20.2004 11.5822C20.1829 11.3253 20.193 11.0676 20.193 10.8098C20.193 9.29075 20.1894 7.77261 20.1949 6.25356C20.1995 4.99594 21.0322 4.17037 22.2987 4.16853C24.7083 4.16486 27.1179 4.16762 29.5284 4.16762C31.9104 4.16762 34.2933 4.1667 36.6762 4.16762C38.0495 4.16853 38.8555 4.96659 38.8573 6.3407C38.861 9.07977 38.862 11.8188 38.8564 14.557Z" fill="#6F768E"/>
<path d="M34.4395 7.88083C34.4423 8.29637 34.1549 8.54863 33.6428 8.54954C31.8466 8.55413 30.0514 8.55413 28.2552 8.54954C27.7449 8.54771 27.4576 8.29178 27.4649 7.87441C27.4714 7.47263 27.7449 7.23872 28.2414 7.23505C29.1533 7.22863 30.0652 7.23322 30.9762 7.23322C31.8604 7.23322 32.7447 7.22955 33.6299 7.23413C34.1577 7.23688 34.4377 7.46713 34.4395 7.88083Z" fill="#6F768E"/>
<path d="M34.4388 10.441C34.4407 10.8483 34.1662 11.0895 33.6807 11.0932C32.9604 11.0978 32.2401 11.0941 31.5198 11.0941C30.7857 11.0941 30.0516 11.0978 29.3175 11.0932C28.8394 11.0904 28.5484 10.84 28.5465 10.4456C28.5447 10.0566 28.845 9.78878 29.3138 9.78695C30.7682 9.78236 32.2226 9.78236 33.6761 9.78695C34.1588 9.78878 34.4379 10.0365 34.4388 10.441Z" fill="#6F768E"/>
<path d="M34.4396 13.0076C34.4368 13.4194 34.1512 13.6588 33.6345 13.6662C33.1325 13.6735 32.6305 13.668 32.1285 13.668C31.6256 13.668 31.1236 13.6744 30.6216 13.6662C30.1076 13.6579 29.8248 13.4121 29.8267 12.9975C29.8285 12.5847 30.1076 12.3471 30.6317 12.3434C31.6357 12.3361 32.6397 12.3352 33.6437 12.3434C34.1632 12.348 34.4432 12.5929 34.4396 13.0076Z" fill="#6F768E"/>
<path d="M21.6483 29.4337C21.6391 29.7841 21.3784 30.0428 20.9824 30.0639C20.6848 30.0804 20.3846 30.0676 20.0861 30.0676C19.7739 30.0667 19.4607 30.0804 19.1494 30.063C18.7588 30.041 18.4981 29.7713 18.4963 29.4209C18.4935 29.0778 18.7597 28.7769 19.1411 28.7641C19.7647 28.743 20.391 28.7421 21.0155 28.765C21.3922 28.7797 21.6584 29.0916 21.6483 29.4337Z" fill="#6F768E"/>
</svg>
