<svg width="50" height="50" viewBox="0 0 50 50" fill="none" xmlns="http://www.w3.org/2000/svg">
<path d="M26.2976 25.7256C30.6254 25.7256 34.9533 25.7289 39.2822 25.7191C39.6009 25.7191 39.7706 25.7787 39.9044 26.1122C40.4613 27.4885 41.9166 28.2237 43.386 27.9205C44.7902 27.6303 45.8257 26.3623 45.8333 24.9243C45.8398 23.4766 44.7913 22.1934 43.3664 21.9064C41.8959 21.6097 40.4558 22.3569 39.8924 23.7343C39.7804 24.0093 39.6586 24.1143 39.3431 24.1133C34.975 24.1003 30.6058 24.1046 26.2367 24.1035C26.1051 24.1035 25.9734 24.0927 25.844 24.0873V19.1506C25.9201 19.1398 25.9604 19.1289 26.0006 19.1289C28.2663 19.1268 30.533 19.1311 32.7986 19.1181C33.077 19.1159 33.1271 19.274 33.2087 19.4668C33.7851 20.8496 35.2198 21.6184 36.674 21.3325C38.0934 21.0532 39.155 19.7711 39.1648 18.3266C39.1745 16.8691 38.1021 15.5653 36.6653 15.287C35.2089 15.0033 33.7699 15.7721 33.2119 17.1636C33.0988 17.4451 32.9541 17.5101 32.6757 17.509C30.5319 17.4993 28.3881 17.5036 26.2443 17.5036H25.832V13.339H26.2932C28.2336 13.339 30.174 13.3325 32.1134 13.3433C32.5963 13.3455 32.9008 13.156 33.0857 12.7099C33.4414 11.849 33.8341 11.0033 34.1865 10.1424C34.2854 9.89989 34.4116 9.82842 34.664 9.83275C35.4917 9.84899 36.3194 9.84899 37.1471 9.83275C37.3918 9.82842 37.4854 9.91505 37.5789 10.137C38.0869 11.3422 39.007 12.0266 40.322 12.0981C41.8916 12.1814 43.2642 11.0509 43.4981 9.53822C43.745 7.94752 42.7932 6.46403 41.264 6.05472C39.7412 5.64757 38.1717 6.42613 37.5844 7.90421C37.4876 8.14785 37.381 8.22798 37.1221 8.22365C36.0649 8.20957 35.0055 8.2269 33.9483 8.2139C33.4643 8.2074 33.1597 8.40556 32.9759 8.84953C32.6235 9.69631 32.2417 10.5312 31.8904 11.379C31.7903 11.6205 31.6772 11.7288 31.3922 11.7256C29.6552 11.7093 27.9193 11.718 26.1823 11.7169C26.0659 11.7169 25.9495 11.7007 25.7962 11.6887C25.9147 9.77644 25.5351 8.0309 24.2875 6.55066C23.0345 5.065 21.4259 4.26153 19.4822 4.17382C17.8007 4.0991 16.2921 4.60912 15.0075 5.69088C13.2357 7.18087 12.5026 9.12241 12.644 11.4245C10.6829 11.444 9.16126 12.2269 8.16821 13.8761C7.17299 15.5296 7.24586 17.2351 8.13014 18.9373C7.23607 19.4191 6.47905 20.0245 5.85146 20.7835C5.51537 21.1907 5.53604 21.6704 5.88518 21.9768C6.23541 22.2833 6.72922 22.2454 7.07401 21.8458C8.37269 20.3428 10.0096 19.639 12.0001 19.7288C12.57 19.7548 12.9344 19.4484 12.9562 18.9665C12.9768 18.4911 12.6233 18.1143 12.0697 18.1208C11.4084 18.1284 10.7427 18.1695 10.0901 18.2681C9.75622 18.3179 9.59959 18.2399 9.46472 17.9562C8.89695 16.7586 8.93611 15.5913 9.69639 14.5009C10.448 13.4245 11.5204 12.9643 12.8289 13.0921C12.9616 13.1051 13.1084 13.2599 13.1976 13.3856C13.6664 14.0418 14.0775 14.7434 14.5898 15.3628C15.0673 15.9378 15.5633 15.9768 15.9527 15.6021C16.3551 15.2145 16.2812 14.7716 15.721 14.2183C14.1482 12.6622 13.8056 10.2312 14.8911 8.32002C16.0016 6.36333 18.2368 5.39743 20.4078 5.9356C22.6593 6.49435 24.1766 8.46187 24.1777 10.8539C24.182 17.7841 24.1799 24.7132 24.1799 31.6433C24.1799 33.953 24.1918 36.2627 24.1755 38.5724C24.1548 41.5405 21.837 43.9531 18.9471 44.0408C16.6542 44.1101 14.5877 42.8139 13.7034 40.7511C12.7995 38.645 13.2999 36.2822 14.9934 34.6504C15.4502 34.2118 15.5046 33.7462 15.1446 33.3759C14.7965 33.0207 14.331 33.0467 13.885 33.4614C12.9224 34.3591 12.2524 35.4398 11.9076 36.7078C11.7706 37.2102 11.6999 37.7311 11.5987 38.2433C10.0814 38.5096 8.41185 37.613 7.68746 36.1415C7.02398 34.7955 7.24151 32.9406 8.08664 32.1707C8.97309 32.4046 9.80081 32.6504 10.6427 32.8356C11.1397 32.9449 11.552 32.6147 11.6172 32.1479C11.6792 31.704 11.379 31.3131 10.8863 31.2416C8.83387 30.9406 7.32961 29.8794 6.36593 28.0494C6.10598 27.5545 5.64807 27.3975 5.21735 27.6282C4.80621 27.8491 4.68221 28.3093 4.92042 28.7879C5.32721 29.6065 5.86996 30.3277 6.54323 30.9503C6.61828 31.0196 6.68462 31.0998 6.75097 31.1712C3.85558 35.2893 7.1806 40.4057 11.7347 39.926C11.7608 40.0126 11.7923 40.1003 11.8163 40.1902C12.5472 42.9493 14.2983 44.7057 17.0567 45.4658C17.3688 45.5514 17.6908 45.6001 18.0073 45.6651H19.4735C19.5475 45.6401 19.6214 45.6033 19.6976 45.5925C22.9584 45.1312 25.4427 42.5476 25.7581 39.273C25.807 38.7674 25.8103 38.2573 25.8331 37.7603C25.8843 37.7419 25.9093 37.7257 25.9332 37.7257C27.792 37.7224 29.6509 37.7159 31.5097 37.73C31.6239 37.7311 31.7903 37.8675 31.8414 37.9812C32.2276 38.8291 32.605 39.6802 32.9552 40.5432C33.1499 41.0218 33.461 41.2287 33.982 41.22C35.1338 41.1994 36.2857 41.2135 37.4451 41.2135C37.5093 41.3662 37.5648 41.5026 37.6235 41.638C38.2424 43.0478 39.8108 43.7885 41.2955 43.3738C42.7747 42.9601 43.7319 41.4972 43.5111 39.9856C43.3034 38.567 42.2353 37.534 40.7767 37.3434C39.4519 37.1702 38.1054 37.978 37.5833 39.2915C37.4832 39.5448 37.356 39.6011 37.1091 39.5979C36.3085 39.5838 35.508 39.5795 34.7075 39.599C34.4258 39.6055 34.2789 39.5275 34.168 39.2546C33.8243 38.4046 33.4371 37.5708 33.0857 36.724C32.9008 36.279 32.5963 36.0895 32.1123 36.0927C30.1849 36.1046 28.2586 36.0982 26.3313 36.0982H25.8429V31.9628C25.918 31.953 25.9582 31.9433 25.9985 31.9433C28.2652 31.9422 30.5308 31.9465 32.7964 31.9325C33.0749 31.9314 33.126 32.0851 33.2065 32.279C33.7884 33.678 35.235 34.4436 36.7088 34.1404C38.1217 33.8502 39.1756 32.5486 39.1648 31.1073C39.1539 29.6574 38.1097 28.4013 36.6696 28.1046C35.2339 27.809 33.7732 28.5865 33.213 29.9758C33.1021 30.2519 32.9628 30.3266 32.68 30.3244C30.5362 30.3136 28.3924 30.319 26.2486 30.3179C26.1159 30.3179 25.9843 30.3071 25.8331 30.3006V25.7256H26.2976ZM42.7486 23.4571C43.5568 23.4636 44.2279 24.1512 44.204 24.9471C44.18 25.7386 43.5155 26.3796 42.7236 26.3732C41.909 26.3667 41.2661 25.7029 41.2792 24.8821C41.2922 24.0851 41.9459 23.4506 42.7486 23.4571ZM36.0584 16.8582C36.8719 16.8528 37.5441 17.5188 37.5365 18.3222C37.5278 19.1105 36.8719 19.7592 36.0758 19.7635C35.272 19.7689 34.6205 19.1365 34.6096 18.3385C34.5976 17.5155 35.2361 16.8647 36.0584 16.8582ZM40.4504 7.57069C41.2596 7.56745 41.9362 8.24314 41.9253 9.04228C41.9133 9.83058 41.252 10.4835 40.4613 10.4857C39.6455 10.489 38.994 9.83167 38.9994 9.01304C39.006 8.2139 39.6499 7.57286 40.4504 7.57069ZM40.47 38.9471C41.2596 38.9558 41.9198 39.6163 41.9253 40.4014C41.9296 41.207 41.2596 41.8664 40.4428 41.861C39.6216 41.8556 38.9864 41.2005 39.0005 40.3732C39.0136 39.5795 39.6749 38.9374 40.47 38.9471ZM36.0399 29.678C36.8621 29.6672 37.5311 30.3114 37.5365 31.1192C37.5409 31.9173 36.8556 32.5952 36.054 32.5865C35.2546 32.5778 34.6128 31.9314 34.6096 31.1344C34.6063 30.3266 35.2328 29.6888 36.0399 29.678Z" fill="#6F768E"/>
<path d="M5.80472 24.7078C5.81995 25.0965 5.59263 25.4105 5.21085 25.5123C4.82255 25.6163 4.5278 25.469 4.30917 25.1485C4.25805 25.0727 4.21454 24.9925 4.16669 24.9146V24.5908C4.21019 24.5096 4.25044 24.4262 4.29721 24.3472C4.49952 24.0093 4.87368 23.848 5.23043 23.9649C5.58284 24.0808 5.7895 24.3266 5.80472 24.7078Z" fill="#6F768E"/>
<path d="M21.5227 32.1133C21.4738 33.2925 20.8429 34.4328 19.5573 35.1886C19.0689 35.4755 18.5947 35.3857 18.3467 34.9818C18.09 34.5638 18.2412 34.1036 18.7383 33.7928C19.826 33.1128 20.2034 31.8946 19.6606 30.8161C19.1103 29.7235 17.8877 29.2979 16.6815 29.7787C16.1442 29.9931 15.7015 29.8599 15.5025 29.4246C15.2969 28.9731 15.5014 28.5399 16.0376 28.293C18.5936 27.1203 21.5184 29.0012 21.5227 32.1133Z" fill="#6F768E"/>
<path d="M20.9277 19.3184C20.8842 21.1712 19.2756 22.7565 17.4124 22.7814C16.9131 22.7879 16.5509 22.4836 16.5216 22.032C16.4911 21.5599 16.7859 21.2297 17.2905 21.1701C18.5718 21.0196 19.1798 20.4132 19.3071 19.1582C19.356 18.6785 19.7258 18.3482 20.1751 18.385C20.6417 18.4229 20.9408 18.7943 20.9277 19.3184Z" fill="#6F768E"/>
</svg>
